<svg version="1.1" viewBox="0.0 0.0 324.0262467191601 208.0" fill="none" stroke="none" stroke-linecap="square" stroke-miterlimit="10" xmlns:xlink="http://www.w3.org/1999/xlink" xmlns="http://www.w3.org/2000/svg"><clipPath id="p.0"><path d="m0 0l324.02625 0l0 208.0l-324.02625 0l0 -208.0z" clip-rule="nonzero"/></clipPath><g clip-path="url(#p.0)"><path fill="#000000" fill-opacity="0.0" d="m0 0l324.02625 0l0 208.0l-324.02625 0z" fill-rule="evenodd"/><path fill="#000000" fill-opacity="0.0" d="m104.945755 107.04035l95.08661 0l0 37.354332l-95.08661 0z" fill-rule="evenodd"/><path fill="#000000" d="m114.883255 128.21535q0 -0.31249237 0.1875 -0.5156174q0.1875 -0.21875 0.546875 -0.21875q0.375 0 0.5625 0.21875q0.203125 0.203125 0.203125 0.5156174q0 0.296875 -0.203125 0.5q-0.1875 0.203125 -0.5625 0.203125q-0.359375 0 -0.546875 -0.203125q-0.1875 -0.203125 -0.1875 -0.5zm4.6171265 -6.4218674l0.03125 0.78125q0.765625 -0.90625 2.09375 -0.90625q1.46875 0 2.0 1.125q0.359375 -0.5 0.921875 -0.8125q0.5625 -0.3125 1.328125 -0.3125q2.3125 0 2.359375 2.453125l0 4.7187424l-1.203125 0l0 -4.6406174q0 -0.765625 -0.34375 -1.140625q-0.34375 -0.375 -1.171875 -0.375q-0.65625 0 -1.109375 0.40625q-0.4375 0.40625 -0.515625 1.078125l0 4.6718674l-1.203125 0l0 -4.6093674q0 -1.546875 -1.5 -1.546875q-1.1875 0 -1.625 1.015625l0 5.1406174l-1.203125 0l0 -7.0468674l1.140625 0zm10.228516 3.46875q0 -1.046875 0.40625 -1.875q0.40625 -0.828125 1.125 -1.265625q0.734375 -0.453125 1.65625 -0.453125q1.4375 0 2.328125 1.0q0.890625 0.984375 0.890625 2.640625l0 0.09375q0 1.015625 -0.390625 1.84375q-0.390625 0.8124924 -1.125 1.2656174q-0.734375 0.453125 -1.6875 0.453125q-1.421875 0 -2.3125 -0.9843674q-0.890625 -1.0 -0.890625 -2.640625l0 -0.078125zm1.203125 0.140625q0 1.171875 0.546875 1.875q0.546875 0.703125 1.453125 0.703125q0.921875 0 1.453125 -0.71875q0.546875 -0.71875 0.546875 -2.0q0 -1.171875 -0.546875 -1.890625q-0.546875 -0.71875 -1.46875 -0.71875q-0.890625 0 -1.4375 0.71875q-0.546875 0.703125 -0.546875 2.03125zm6.3980713 -0.140625q0 -1.046875 0.40625 -1.875q0.40625 -0.828125 1.125 -1.265625q0.734375 -0.453125 1.65625 -0.453125q1.4375 0 2.328125 1.0q0.890625 0.984375 0.890625 2.640625l0 0.09375q0 1.015625 -0.390625 1.84375q-0.390625 0.8124924 -1.125 1.2656174q-0.734375 0.453125 -1.6875 0.453125q-1.421875 0 -2.3125 -0.9843674q-0.890625 -1.0 -0.890625 -2.640625l0 -0.078125zm1.203125 0.140625q0 1.171875 0.546875 1.875q0.546875 0.703125 1.453125 0.703125q0.921875 0 1.453125 -0.71875q0.546875 -0.71875 0.546875 -2.0q0 -1.171875 -0.546875 -1.890625q-0.546875 -0.71875 -1.46875 -0.71875q-0.890625 0 -1.4375 0.71875q-0.546875 0.703125 -0.546875 2.03125zm7.8511963 -3.609375l0.046875 0.890625q0.796875 -1.015625 2.109375 -1.015625q2.234375 0 2.25 2.515625l0 4.6562424l-1.203125 0l0 -4.6562424q-0.015625 -0.765625 -0.359375 -1.125q-0.328125 -0.375 -1.0625 -0.375q-0.578125 0 -1.03125 0.3125q-0.4375 0.3125 -0.6875 0.828125l0 5.0156174l-1.203125 0l0 -7.0468674l1.140625 0zm10.322647 5.171875q0 -0.484375 -0.375 -0.75q-0.359375 -0.265625 -1.28125 -0.453125q-0.90625 -0.203125 -1.453125 -0.46875q-0.53125 -0.28125 -0.796875 -0.65625q-0.25 -0.390625 -0.25 -0.90625q0 -0.859375 0.734375 -1.453125q0.734375 -0.609375 1.875 -0.609375q1.1875 0 1.9375 0.625q0.75 0.609375 0.75 1.578125l-1.21875 0q0 -0.5 -0.421875 -0.859375q-0.421875 -0.359375 -1.046875 -0.359375q-0.65625 0 -1.03125 0.296875q-0.375 0.28125 -0.375 0.75q0 0.421875 0.34375 0.65625q0.34375 0.21875 1.25 0.421875q0.90625 0.203125 1.453125 0.484375q0.5625 0.265625 0.828125 0.671875q0.28125 0.390625 0.28125 0.953125q0 0.9375 -0.765625 1.5156174q-0.75 0.5625 -1.953125 0.5625q-0.84375 0 -1.5 -0.296875q-0.640625 -0.296875 -1.015625 -0.8281174q-0.359375 -0.546875 -0.359375 -1.171875l1.203125 0q0.03125 0.609375 0.484375 0.96875q0.453125 0.34375 1.1875 0.34375q0.6875 0 1.09375 -0.265625q0.421875 -0.28125 0.421875 -0.75zm2.7941895 1.2499924q0 -0.31249237 0.1875 -0.5156174q0.1875 -0.21875 0.546875 -0.21875q0.375 0 0.5625 0.21875q0.203125 0.203125 0.203125 0.5156174q0 0.296875 -0.203125 0.5q-0.1875 0.203125 -0.5625 0.203125q-0.359375 0 -0.546875 -0.203125q-0.1875 -0.203125 -0.1875 -0.5zm9.304626 -3.4218674q0 2.125 -0.734375 3.15625q-0.71875 1.0156174 -2.25 1.0156174q-1.515625 0 -2.25 -0.9999924q-0.71875 -1.0 -0.75 -3.0l0 -1.609375q0 -2.09375 0.71875 -3.109375q0.71875 -1.015625 2.265625 -1.015625q1.53125 0 2.25 0.984375q0.71875 0.984375 0.75 3.015625l0 1.5625zm-1.203125 -1.640625q0 -1.53125 -0.4375 -2.21875q-0.421875 -0.703125 -1.359375 -0.703125q-0.921875 0 -1.34375 0.703125q-0.421875 0.6875 -0.4375 2.125l0 1.921875q0 1.546875 0.4375 2.28125q0.453125 0.71875 1.359375 0.71875q0.890625 0 1.3125 -0.6875q0.4375 -0.6875 0.46875 -2.171875l0 -1.96875z" fill-rule="nonzero"/><path fill="#000000" fill-opacity="0.0" d="m44.45354 25.852219l78.67717 0l0 33.85827l-78.67717 0z" fill-rule="evenodd"/><path fill="#000000" d="m54.39104 47.027218q0 -0.3125 0.1875 -0.515625q0.1875 -0.21875 0.546875 -0.21875q0.375 0 0.5625 0.21875q0.203125 0.203125 0.203125 0.515625q0 0.296875 -0.203125 0.5q-0.1875 0.203125 -0.5625 0.203125q-0.359375 0 -0.546875 -0.203125q-0.1875 -0.203125 -0.1875 -0.5zm9.429626 -2.8125q0 1.609375 -0.734375 2.59375q-0.734375 0.96875 -2.0 0.96875q-1.28125 0 -2.015625 -0.8125l0 3.390625l-1.203125 0l0 -9.75l1.109375 0l0.046875 0.78125q0.75 -0.90625 2.046875 -0.90625q1.265625 0 2.0 0.953125q0.75 0.953125 0.75 2.671875l0 0.109375zm-1.203125 -0.140625q0 -1.1875 -0.515625 -1.875q-0.5 -0.703125 -1.390625 -0.703125q-1.09375 0 -1.640625 0.96875l0 3.375q0.546875 0.953125 1.65625 0.953125q0.875 0 1.375 -0.671875q0.515625 -0.6875 0.515625 -2.046875zm4.0400505 3.578125l-1.203125 0l0 -10.0l1.203125 0l0 10.0zm6.281296 0q-0.109375 -0.203125 -0.171875 -0.734375q-0.84375 0.859375 -2.015625 0.859375q-1.03125 0 -1.703125 -0.578125q-0.671875 -0.59375 -0.671875 -1.5q0 -1.09375 0.828125 -1.703125q0.84375 -0.609375 2.359375 -0.609375l1.171875 0l0 -0.5625q0 -0.625 -0.375 -1.0q-0.375 -0.375 -1.109375 -0.375q-0.640625 0 -1.078125 0.328125q-0.4375 0.328125 -0.4375 0.78125l-1.203125 0q0 -0.515625 0.359375 -1.0q0.375 -0.5 1.015625 -0.78125q0.65625 -0.296875 1.421875 -0.296875q1.21875 0 1.90625 0.609375q0.6875 0.609375 0.71875 1.671875l0 3.25q0 0.96875 0.234375 1.53125l0 0.109375l-1.25 0zm-2.0 -0.921875q0.5625 0 1.0625 -0.28125q0.515625 -0.296875 0.734375 -0.765625l0 -1.453125l-0.9375 0q-2.21875 0 -2.21875 1.296875q0 0.5625 0.375 0.890625q0.390625 0.3125 0.984375 0.3125zm6.031021 -6.125l0.046875 0.890625q0.796875 -1.015625 2.109375 -1.015625q2.234375 0 2.25 2.515625l0 4.65625l-1.203125 0l0 -4.65625q-0.015625 -0.765625 -0.359375 -1.125q-0.328125 -0.375 -1.0625 -0.375q-0.578125 0 -1.03125 0.3125q-0.4375 0.3125 -0.6875 0.828125l0 5.015625l-1.203125 0l0 -7.046875l1.140625 0zm9.135147 7.171875q-1.421875 0 -2.328125 -0.9375q-0.890625 -0.9375 -0.890625 -2.515625l0 -0.21875q0 -1.046875 0.390625 -1.859375q0.40625 -0.828125 1.125 -1.296875q0.71875 -0.46875 1.5625 -0.46875q1.375 0 2.125 0.90625q0.765625 0.90625 0.765625 2.59375l0 0.5l-4.765625 0q0.015625 1.03125 0.59375 1.671875q0.59375 0.640625 1.484375 0.640625q0.640625 0 1.078125 -0.25q0.453125 -0.265625 0.78125 -0.6875l0.734375 0.5625q-0.875 1.359375 -2.65625 1.359375zm-0.140625 -6.3125q-0.734375 0 -1.234375 0.53125q-0.484375 0.53125 -0.609375 1.484375l3.53125 0l0 -0.078125q-0.046875 -0.921875 -0.5 -1.421875q-0.4375 -0.515625 -1.1875 -0.515625zm5.9204254 -2.5625l0 1.703125l1.3125 0l0 0.9375l-1.3125 0l0 4.359375q0 0.421875 0.171875 0.640625q0.171875 0.21875 0.59375 0.21875q0.21875 0 0.578125 -0.078125l0 0.96875q-0.46875 0.125 -0.921875 0.125q-0.8125 0 -1.21875 -0.484375q-0.40625 -0.484375 -0.40625 -1.390625l0 -4.359375l-1.28125 0l0 -0.9375l1.28125 0l0 -1.703125l1.203125 0zm6.822525 6.875q0 -0.484375 -0.375 -0.75q-0.359375 -0.265625 -1.28125 -0.453125q-0.90625 -0.203125 -1.453125 -0.46875q-0.53125 -0.28125 -0.796875 -0.65625q-0.25 -0.390625 -0.25 -0.90625q0 -0.859375 0.734375 -1.453125q0.734375 -0.609375 1.875 -0.609375q1.1875 0 1.9375 0.625q0.75 0.609375 0.75 1.578125l-1.21875 0q0 -0.5 -0.421875 -0.859375q-0.421875 -0.359375 -1.046875 -0.359375q-0.65625 0 -1.03125 0.296875q-0.375 0.28125 -0.375 0.75q0 0.421875 0.34375 0.65625q0.34375 0.21875 1.25 0.421875q0.90625 0.203125 1.453125 0.484375q0.5625 0.265625 0.828125 0.671875q0.28125 0.390625 0.28125 0.953125q0 0.9375 -0.765625 1.515625q-0.75 0.5625 -1.953125 0.5625q-0.84375 0 -1.5 -0.296875q-0.640625 -0.296875 -1.015625 -0.828125q-0.359375 -0.546875 -0.359375 -1.171875l1.203125 0q0.03125 0.609375 0.484375 0.96875q0.453125 0.34375 1.1875 0.34375q0.6875 0 1.09375 -0.265625q0.421875 -0.28125 0.421875 -0.75zm2.7941895 1.25q0 -0.3125 0.1875 -0.515625q0.1875 -0.21875 0.546875 -0.21875q0.375 0 0.5625 0.21875q0.203125 0.203125 0.203125 0.515625q0 0.296875 -0.203125 0.5q-0.1875 0.203125 -0.5625 0.203125q-0.359375 0 -0.546875 -0.203125q-0.1875 -0.203125 -0.1875 -0.5zm9.304626 -3.421875q0 2.125 -0.734375 3.15625q-0.71875 1.015625 -2.25 1.015625q-1.515625 0 -2.25 -1.0q-0.71875 -1.0 -0.75 -3.0l0 -1.609375q0 -2.09375 0.71875 -3.109375q0.71875 -1.015625 2.265625 -1.015625q1.53125 0 2.25 0.984375q0.71875 0.984375 0.75 3.015625l0 1.5625zm-1.203125 -1.640625q0 -1.53125 -0.4375 -2.21875q-0.421875 -0.703125 -1.359375 -0.703125q-0.921875 0 -1.34375 0.703125q-0.421875 0.6875 -0.4375 2.125l0 1.921875q0 1.546875 0.4375 2.28125q0.453125 0.71875 1.359375 0.71875q0.890625 0 1.3125 -0.6875q0.4375 -0.6875 0.46875 -2.171875l0 -1.96875z" fill-rule="nonzero"/><g filter="url(#shadowFilter-p.1)"><use xlink:href="#p.1" transform="matrix(1.0 0.0 0.0 1.0 0.0 2.0)"/></g><defs><filter id="shadowFilter-p.1" filterUnits="userSpaceOnUse"><feGaussianBlur in="SourceAlpha" stdDeviation="2.0" result="blur"/><feComponentTransfer in="blur" color-interpolation-filters="sRGB"><feFuncR type="linear" slope="0" intercept="0.0"/><feFuncG type="linear" slope="0" intercept="0.0"/><feFuncB type="linear" slope="0" intercept="0.0"/><feFuncA type="linear" slope="0.5" intercept="0"/></feComponentTransfer></filter></defs><g id="p.1"><path fill="#fff0f0" fill-opacity="0.9412" d="m99.91863 1.7244095l97.826775 0l0 27.181103l-97.826775 0z" fill-rule="evenodd"/><path fill="#000000" d="m114.68426 17.630585q0 -0.5625 -0.390625 -0.84375q-0.390625 -0.296875 -1.40625 -0.625q-1.015625 -0.328125 -1.609375 -0.65625q-1.625 -0.875 -1.625 -2.34375q0 -0.765625 0.4375 -1.359375q0.4375 -0.609375 1.25 -0.953125q0.8125 -0.34375 1.8125 -0.34375q1.015625 0 1.8125 0.375q0.796875 0.359375 1.234375 1.03125q0.4375 0.671875 0.4375 1.53125l-1.953125 0q0 -0.65625 -0.40625 -1.015625q-0.40625 -0.359375 -1.15625 -0.359375q-0.71875 0 -1.125 0.3125q-0.390625 0.296875 -0.390625 0.78125q0 0.46875 0.46875 0.78125q0.46875 0.3125 1.375 0.578125q1.671875 0.5 2.421875 1.25q0.765625 0.734375 0.765625 1.84375q0 1.234375 -0.9375 1.9375q-0.921875 0.6875 -2.5 0.6875q-1.09375 0 -2.0 -0.390625q-0.890625 -0.40625 -1.359375 -1.09375q-0.46875 -0.703125 -0.46875 -1.625l1.953125 0q0 1.578125 1.875 1.578125q0.703125 0 1.09375 -0.28125q0.390625 -0.296875 0.390625 -0.796875zm2.8496704 -1.09375q0 -1.0625 0.40625 -1.875q0.40625 -0.828125 1.15625 -1.265625q0.765625 -0.453125 1.765625 -0.453125q1.4375 0 2.328125 0.875q0.90625 0.875 1.015625 2.359375l0 0.484375q0 1.625 -0.90625 2.609375q-0.890625 0.96875 -2.421875 0.96875q-1.515625 0 -2.4375 -0.96875q-0.90625 -0.984375 -0.90625 -2.65625l0 -0.078125zm1.890625 0.125q0 1.0 0.375 1.53125q0.375 0.53125 1.078125 0.53125q0.6875 0 1.0625 -0.515625q0.390625 -0.53125 0.390625 -1.671875q0 -0.984375 -0.390625 -1.53125q-0.375 -0.546875 -1.078125 -0.546875q-0.6875 0 -1.0625 0.546875q-0.375 0.53125 -0.375 1.65625zm7.9267426 3.453125l-1.890625 0l0 -10.0l1.890625 0l0 10.0zm5.6275406 0q-0.125 -0.25 -0.1875 -0.625q-0.671875 0.75 -1.765625 0.75q-1.046875 0 -1.734375 -0.59375q-0.671875 -0.59375 -0.671875 -1.515625q0 -1.109375 0.828125 -1.703125q0.84375 -0.609375 2.40625 -0.609375l0.859375 0l0 -0.40625q0 -0.484375 -0.25 -0.78125q-0.25 -0.296875 -0.78125 -0.296875q-0.484375 0 -0.75 0.234375q-0.265625 0.21875 -0.265625 0.625l-1.890625 0q0 -0.609375 0.375 -1.125q0.390625 -0.53125 1.078125 -0.828125q0.6875 -0.296875 1.546875 -0.296875q1.296875 0 2.0625 0.65625q0.765625 0.65625 0.765625 1.84375l0 3.046875q0.015625 1.0 0.28125 1.515625l0 0.109375l-1.90625 0zm-1.546875 -1.3125q0.40625 0 0.75 -0.171875q0.359375 -0.1875 0.53125 -0.5l0 -1.21875l-0.703125 0q-1.40625 0 -1.5 0.984375l0 0.109375q0 0.34375 0.234375 0.578125q0.25 0.21875 0.6875 0.21875zm8.56752 -3.96875q-0.375 -0.046875 -0.671875 -0.046875q-1.0625 0 -1.390625 0.71875l0 4.609375l-1.890625 0l0 -7.046875l1.78125 0l0.046875 0.84375q0.578125 -0.96875 1.578125 -0.96875q0.3125 0 0.578125 0.078125l-0.03125 1.8125zm5.955139 2.796875q0 -0.5625 -0.390625 -0.84375q-0.390625 -0.296875 -1.40625 -0.625q-1.015625 -0.328125 -1.609375 -0.65625q-1.625 -0.875 -1.625 -2.34375q0 -0.765625 0.4375 -1.359375q0.4375 -0.609375 1.25 -0.953125q0.8125 -0.34375 1.8125 -0.34375q1.015625 0 1.8125 0.375q0.796875 0.359375 1.234375 1.03125q0.4375 0.671875 0.4375 1.53125l-1.953125 0q0 -0.65625 -0.40625 -1.015625q-0.40625 -0.359375 -1.15625 -0.359375q-0.71875 0 -1.125 0.3125q-0.390625 0.296875 -0.390625 0.78125q0 0.46875 0.46875 0.78125q0.46875 0.3125 1.375 0.578125q1.671875 0.5 2.421875 1.25q0.765625 0.734375 0.765625 1.84375q0 1.234375 -0.9375 1.9375q-0.921875 0.6875 -2.5 0.6875q-1.09375 0 -2.0 -0.390625q-0.890625 -0.40625 -1.359375 -1.09375q-0.46875 -0.703125 -0.46875 -1.625l1.953125 0q0 1.578125 1.875 1.578125q0.703125 0 1.09375 -0.28125q0.390625 -0.296875 0.390625 -0.796875zm5.7715454 -0.171875l1.3125 -4.390625l2.015625 0l-2.828125 8.140625l-0.15625 0.375q-0.640625 1.375 -2.09375 1.375q-0.40625 0 -0.828125 -0.125l0 -1.421875l0.28125 0q0.546875 0 0.796875 -0.171875q0.265625 -0.15625 0.421875 -0.53125l0.21875 -0.578125l-2.46875 -7.0625l2.03125 0l1.296875 4.390625zm7.877594 0.703125q0 -0.34375 -0.34375 -0.53125q-0.328125 -0.203125 -1.09375 -0.359375q-2.515625 -0.53125 -2.515625 -2.140625q0 -0.9375 0.78125 -1.5625q0.78125 -0.625 2.03125 -0.625q1.34375 0 2.140625 0.640625q0.8125 0.625 0.8125 1.625l-1.875 0q0 -0.390625 -0.265625 -0.65625q-0.265625 -0.265625 -0.8125 -0.265625q-0.46875 0 -0.734375 0.21875q-0.265625 0.203125 -0.265625 0.546875q0 0.3125 0.296875 0.5q0.296875 0.1875 1.0 0.328125q0.703125 0.140625 1.1875 0.3125q1.484375 0.546875 1.484375 1.890625q0 0.96875 -0.828125 1.5625q-0.8125 0.59375 -2.125 0.59375q-0.890625 0 -1.578125 -0.3125q-0.6875 -0.3125 -1.078125 -0.859375q-0.390625 -0.546875 -0.390625 -1.1875l1.78125 0q0.03125 0.5 0.375 0.765625q0.34375 0.265625 0.921875 0.265625q0.546875 0 0.8125 -0.203125q0.28125 -0.203125 0.28125 -0.546875zm5.2902985 -6.8125l0 1.71875l1.203125 0l0 1.390625l-1.203125 0l0 3.515625q0 0.390625 0.15625 0.5625q0.15625 0.15625 0.578125 0.15625q0.3125 0 0.546875 -0.046875l0 1.4375q-0.546875 0.15625 -1.140625 0.15625q-1.984375 0 -2.015625 -2.0l0 -3.78125l-1.03125 0l0 -1.390625l1.03125 0l0 -1.71875l1.875 0zm5.5034485 8.890625q-1.546875 0 -2.53125 -0.9375q-0.96875 -0.953125 -0.96875 -2.53125l0 -0.1875q0 -1.0625 0.40625 -1.890625q0.40625 -0.84375 1.15625 -1.296875q0.765625 -0.453125 1.71875 -0.453125q1.453125 0 2.28125 0.921875q0.828125 0.90625 0.828125 2.578125l0 0.765625l-4.484375 0q0.09375 0.6875 0.546875 1.109375q0.46875 0.40625 1.171875 0.40625q1.078125 0 1.6875 -0.78125l0.921875 1.03125q-0.421875 0.59375 -1.140625 0.9375q-0.71875 0.328125 -1.59375 0.328125zm-0.21875 -5.78125q-0.5625 0 -0.90625 0.390625q-0.34375 0.375 -0.453125 1.078125l2.625 0l0 -0.15625q-0.015625 -0.625 -0.34375 -0.96875q-0.328125 -0.34375 -0.921875 -0.34375zm5.9385986 -1.390625l0.0625 0.796875q0.75 -0.921875 2.015625 -0.921875q1.359375 0 1.875 1.078125q0.734375 -1.078125 2.109375 -1.078125q1.15625 0 1.703125 0.671875q0.5625 0.65625 0.5625 2.0l0 4.5l-1.890625 0l0 -4.484375q0 -0.609375 -0.234375 -0.875q-0.234375 -0.28125 -0.8125 -0.28125q-0.859375 0 -1.171875 0.8125l0 4.828125l-1.875 0l0 -4.484375q0 -0.609375 -0.25 -0.875q-0.234375 -0.28125 -0.8125 -0.28125q-0.796875 0 -1.15625 0.65625l0 4.984375l-1.890625 0l0 -7.046875l1.765625 0z" fill-rule="nonzero"/></g><g filter="url(#shadowFilter-p.2)"><use xlink:href="#p.2" transform="matrix(1.0 0.0 0.0 1.0 0.0 2.0)"/></g><defs><filter id="shadowFilter-p.2" filterUnits="userSpaceOnUse"><feGaussianBlur in="SourceAlpha" stdDeviation="2.0" result="blur"/><feComponentTransfer in="blur" color-interpolation-filters="sRGB"><feFuncR type="linear" slope="0" intercept="0.0"/><feFuncG type="linear" slope="0" intercept="0.0"/><feFuncB type="linear" slope="0" intercept="0.0"/><feFuncA type="linear" slope="0.5" intercept="0"/></feComponentTransfer></filter></defs><g id="p.2"><path fill="#f0fff0" d="m40.453655 60.28529l101.66928 0l0 46.86614l-101.66928 0z" fill-rule="evenodd"/><path fill="#000000" d="m52.25053 77.17461l0 3.34375l-1.953125 0l0 -9.46875l3.703125 0q1.0625 0 1.875 0.390625q0.8125 0.390625 1.25 1.109375q0.4375 0.71875 0.4375 1.625q0 1.390625 -0.953125 2.203125q-0.953125 0.796875 -2.640625 0.796875l-1.71875 0zm0 -1.578125l1.75 0q0.765625 0 1.171875 -0.359375q0.40625 -0.375 0.40625 -1.046875q0 -0.6875 -0.40625 -1.109375q-0.40625 -0.4375 -1.125 -0.453125l-1.796875 0l0 2.96875zm8.503159 4.921875l-1.890625 0l0 -10.0l1.890625 0l0 10.0zm5.627537 0q-0.125 -0.25 -0.1875 -0.625q-0.671875 0.75 -1.765625 0.75q-1.0468788 0 -1.7343788 -0.59375q-0.671875 -0.59375 -0.671875 -1.515625q0 -1.109375 0.828125 -1.703125q0.84375 -0.609375 2.4062538 -0.609375l0.859375 0l0 -0.40625q0 -0.484375 -0.25 -0.78125q-0.25 -0.296875 -0.78125 -0.296875q-0.484375 0 -0.75 0.234375q-0.265625 0.21875 -0.265625 0.625l-1.8906288 0q0 -0.609375 0.375 -1.125q0.390625 -0.53125 1.078125 -0.828125q0.6875038 -0.296875 1.5468788 -0.296875q1.296875 0 2.0625 0.65625q0.765625 0.65625 0.765625 1.84375l0 3.046875q0.015625 1.0 0.28125 1.515625l0 0.109375l-1.90625 0zm-1.546875 -1.3125q0.40625 0 0.75 -0.171875q0.359375 -0.1875 0.53125 -0.5l0 -1.21875l-0.703125 0q-1.40625 0 -1.5000038 0.984375l0 0.109375q0 0.34375 0.23437881 0.578125q0.25 0.21875 0.6875 0.21875zm6.34877 -5.734375l0.0625 0.8125q0.75 -0.9375 2.015625 -0.9375q1.125 0 1.671875 0.65625q0.546875 0.65625 0.5625 1.96875l0 4.546875l-1.890625 0l0 -4.5q0 -0.609375 -0.265625 -0.875q-0.25 -0.265625 -0.859375 -0.265625q-0.78125 0 -1.1875 0.671875l0 4.96875l-1.875 0l0 -7.046875l1.765625 0zm8.980164 7.171875q-1.546875 0 -2.53125 -0.9375q-0.96875 -0.953125 -0.96875 -2.53125l0 -0.1875q0 -1.0625 0.40625 -1.890625q0.40625 -0.84375 1.15625 -1.296875q0.765625 -0.453125 1.71875 -0.453125q1.453125 0 2.28125 0.921875q0.828125 0.90625 0.828125 2.578125l0 0.765625l-4.484375 0q0.09375 0.6875 0.546875 1.109375q0.46875 0.40625 1.171875 0.40625q1.078125 0 1.6875 -0.78125l0.921875 1.03125q-0.421875 0.59375 -1.140625 0.9375q-0.71875 0.328125 -1.59375 0.328125zm-0.21875 -5.78125q-0.5625 0 -0.90625 0.390625q-0.34375 0.375 -0.453125 1.078125l2.625 0l0 -0.15625q-0.015625 -0.625 -0.34375 -0.96875q-0.328125 -0.34375 -0.921875 -0.34375zm6.4229736 -3.109375l0 1.71875l1.203125 0l0 1.390625l-1.203125 0l0 3.515625q0 0.390625 0.15625 0.5625q0.15625 0.15625 0.578125 0.15625q0.3125 0 0.546875 -0.046875l0 1.4375q-0.546875 0.15625 -1.140625 0.15625q-1.984375 0 -2.015625 -2.0l0 -3.78125l-1.03125 0l0 -1.390625l1.03125 0l0 -1.71875l1.875 0z" fill-rule="nonzero"/><path fill="#000000" d="m51.50053 89.47148l0.046875 0.890625q0.796875 -1.015625 2.109375 -1.015625q2.234375 0 2.25 2.515625l0 4.65625l-1.203125 0l0 -4.65625q-0.015625 -0.765625 -0.359375 -1.125q-0.328125 -0.375 -1.0625 -0.375q-0.578125 0 -1.03125 0.3125q-0.4375 0.3125 -0.6875 0.828125l0 5.015625l-1.203125 0l0 -7.046875l1.140625 0zm10.572647 7.046875q-0.109375 -0.203125 -0.171875 -0.734375q-0.84375 0.859375 -2.015625 0.859375q-1.03125 0 -1.703125 -0.578125q-0.671875 -0.59375 -0.671875 -1.5q0 -1.09375 0.828125 -1.703125q0.84375 -0.609375 2.359375 -0.609375l1.171875 0l0 -0.5625q0 -0.625 -0.375 -1.0q-0.375 -0.375 -1.109375 -0.375q-0.640625 0 -1.078125 0.328125q-0.4375 0.328125 -0.4375 0.78125l-1.203125 0q0 -0.515625 0.359375 -1.0q0.375 -0.5 1.015625 -0.78125q0.65625 -0.296875 1.421875 -0.296875q1.21875 0 1.90625 0.609375q0.6875 0.609375 0.71875 1.671875l0 3.25q0 0.96875 0.234375 1.53125l0 0.109375l-1.25 0zm-2.0 -0.921875q0.5625 0 1.0625 -0.28125q0.515625 -0.296875 0.734375 -0.765625l0 -1.453125l-0.9375 0q-2.21875 0 -2.21875 1.296875q0 0.5625 0.375 0.890625q0.390625 0.3125 0.984375 0.3125zm6.031025 -6.125l0.03125 0.78125q0.765625 -0.90625 2.09375 -0.90625q1.46875 0 2.0 1.125q0.359375 -0.5 0.921875 -0.8125q0.5625 -0.3125 1.328125 -0.3125q2.3125 0 2.359375 2.453125l0 4.71875l-1.203125 0l0 -4.640625q0 -0.765625 -0.34375 -1.140625q-0.34375 -0.375 -1.171875 -0.375q-0.65625 0 -1.109375 0.40625q-0.4375 0.40625 -0.515625 1.078125l0 4.671875l-1.203125 0l0 -4.609375q0 -1.546875 -1.5 -1.546875q-1.1875 0 -1.625 1.015625l0 5.140625l-1.203125 0l0 -7.046875l1.140625 0zm13.462891 7.171875q-1.421875 0 -2.328125 -0.9375q-0.890625 -0.9375 -0.890625 -2.515625l0 -0.21875q0 -1.046875 0.390625 -1.859375q0.40625 -0.828125 1.125 -1.296875q0.71875 -0.46875 1.5625 -0.46875q1.375 0 2.125 0.90625q0.765625 0.90625 0.765625 2.59375l0 0.5l-4.765625 0q0.015625 1.03125 0.59375 1.671875q0.59375 0.640625 1.484375 0.640625q0.640625 0 1.078125 -0.25q0.453125 -0.265625 0.78125 -0.6875l0.734375 0.5625q-0.875 1.359375 -2.65625 1.359375zm-0.140625 -6.3125q-0.734375 0 -1.234375 0.53125q-0.484375 0.53125 -0.609375 1.484375l3.53125 0l0 -0.078125q-0.046875 -0.921875 -0.5 -1.421875q-0.4375 -0.515625 -1.1875 -0.515625zm9.795425 0.890625l-5.4375 0l0 -1.046875l5.4375 0l0 1.046875zm0 2.703125l-5.4375 0l0 -1.046875l5.4375 0l0 1.046875zm2.6429749 -7.53125l0.703125 0.46875q-0.609375 0.828125 -0.625 1.78125l0 0.890625l-1.203125 0l0 -0.75q0 -0.671875 0.3125 -1.3125q0.3125 -0.65625 0.8125 -1.078125zm2.0 0l0.703125 0.46875q-0.609375 0.828125 -0.625 1.78125l0 0.890625l-1.203125 0l0 -0.75q0 -0.671875 0.3125 -1.3125q0.3125 -0.65625 0.8125 -1.078125zm7.4148254 5.75l-4.109375 0l0 3.359375l4.78125 0l0 1.015625l-6.03125 0l0 -9.46875l5.953125 0l0 1.015625l-4.703125 0l0 3.046875l4.109375 0l0 1.03125zm6.387665 4.375q-0.109375 -0.203125 -0.171875 -0.734375q-0.84375 0.859375 -2.015625 0.859375q-1.03125 0 -1.703125 -0.578125q-0.671875 -0.59375 -0.671875 -1.5q0 -1.09375 0.828125 -1.703125q0.84375 -0.609375 2.359375 -0.609375l1.171875 0l0 -0.5625q0 -0.625 -0.375 -1.0q-0.375 -0.375 -1.109375 -0.375q-0.640625 0 -1.078125 0.328125q-0.4375 0.328125 -0.4375 0.78125l-1.203125 0q0 -0.515625 0.359375 -1.0q0.375 -0.5 1.015625 -0.78125q0.65625 -0.296875 1.421875 -0.296875q1.21875 0 1.90625 0.609375q0.6875 0.609375 0.71875 1.671875l0 3.25q0 0.96875 0.234375 1.53125l0 0.109375l-1.25 0zm-2.0 -0.921875q0.5625 0 1.0625 -0.28125q0.515625 -0.296875 0.734375 -0.765625l0 -1.453125l-0.9375 0q-2.21875 0 -2.21875 1.296875q0 0.5625 0.375 0.890625q0.390625 0.3125 0.984375 0.3125zm8.296646 -5.046875q-0.265625 -0.03125 -0.59375 -0.03125q-1.1875 0 -1.609375 1.0l0 5.0l-1.203125 0l0 -7.046875l1.171875 0l0.03125 0.8125q0.578125 -0.9375 1.671875 -0.9375q0.34375 0 0.53125 0.09375l0 1.109375zm2.744339 -2.78125l0 1.703125l1.3125 0l0 0.9375l-1.3125 0l0 4.359375q0 0.421875 0.171875 0.640625q0.171875 0.21875 0.59375 0.21875q0.21875 0 0.578125 -0.078125l0 0.96875q-0.46875 0.125 -0.921875 0.125q-0.8125 0 -1.21875 -0.484375q-0.40625 -0.484375 -0.40625 -1.390625l0 -4.359375l-1.28125 0l0 -0.9375l1.28125 0l0 -1.703125l1.203125 0zm3.916275 2.5625q0.8125 -0.984375 2.09375 -0.984375q2.234375 0 2.25 2.515625l0 4.65625l-1.203125 0l0 -4.65625q-0.015625 -0.765625 -0.359375 -1.125q-0.328125 -0.375 -1.0625 -0.375q-0.578125 0 -1.03125 0.3125q-0.4375 0.3125 -0.6875 0.828125l0 5.015625l-1.203125 0l0 -10.0l1.203125 0l0 3.8125zm6.2315063 -0.625l-0.6875 -0.46875q0.609375 -0.84375 0.625 -1.78125l0 -0.9375l1.1875 0l0 0.84375q0 0.65625 -0.328125 1.3125q-0.3125 0.640625 -0.796875 1.03125zm2.0 0l-0.6875 -0.46875q0.609375 -0.84375 0.625 -1.78125l0 -0.9375l1.1875 0l0 0.84375q0 0.65625 -0.328125 1.3125q-0.3125 0.640625 -0.796875 1.03125z" fill-rule="nonzero"/></g><path fill="#000000" fill-opacity="0.0" d="m148.83202 28.905512l-57.543304 31.370077" fill-rule="evenodd"/><path stroke="#000000" stroke-width="1.0" stroke-linejoin="round" stroke-linecap="butt" d="m148.83202 28.905512l-52.27527 28.498178" fill-rule="evenodd"/><path fill="#000000" stroke="#000000" stroke-width="1.0" stroke-linecap="butt" d="m95.76614 55.95346l-3.1938705 3.6223907l4.775078 -0.72193146z" fill-rule="evenodd"/><g filter="url(#shadowFilter-p.3)"><use xlink:href="#p.3" transform="matrix(1.0 0.0 0.0 1.0 0.0 2.0)"/></g><defs><filter id="shadowFilter-p.3" filterUnits="userSpaceOnUse"><feGaussianBlur in="SourceAlpha" stdDeviation="2.0" result="blur"/><feComponentTransfer in="blur" color-interpolation-filters="sRGB"><feFuncR type="linear" slope="0" intercept="0.0"/><feFuncG type="linear" slope="0" intercept="0.0"/><feFuncB type="linear" slope="0" intercept="0.0"/><feFuncA type="linear" slope="0.5" intercept="0"/></feComponentTransfer></filter></defs><g id="p.3"><path fill="#f0f0ff" d="m4.8320208 140.28609l95.08661 0l0 61.35434l-95.08661 0z" fill-rule="evenodd"/><path fill="#000000" d="m17.222647 150.29451l2.4375 6.859375l2.421875 -6.859375l2.5625 0l0 9.46875l-1.953125 0l0 -2.59375l0.1875 -4.46875l-2.546875 7.0625l-1.34375 0l-2.546875 -7.046875l0.1875 4.453125l0 2.59375l-1.953126 0l0 -9.46875l2.546876 0zm8.706375 5.890625q0 -1.0625 0.40625 -1.875q0.40625 -0.828125 1.15625 -1.265625q0.765625 -0.453125 1.765625 -0.453125q1.4375 0 2.328125 0.875q0.9062481 0.875 1.0156231 2.359375l0 0.484375q0 1.625 -0.9062481 2.609375q-0.890625 0.96875 -2.421875 0.96875q-1.515625 0 -2.4375 -0.96875q-0.90625 -0.984375 -0.90625 -2.65625l0 -0.078125zm1.890625 0.125q0 1.0 0.375 1.53125q0.375 0.53125 1.078125 0.53125q0.6875 0 1.0625 -0.515625q0.390625 -0.53125 0.390625 -1.671875q0 -0.984375 -0.390625 -1.53125q-0.375 -0.546875 -1.078125 -0.546875q-0.6875 0 -1.0625 0.546875q-0.375 0.53125 -0.375 1.65625zm5.6454906 -0.125q0 -1.0625 0.40625 -1.875q0.40625 -0.828125 1.15625 -1.265625q0.765625 -0.453125 1.765625 -0.453125q1.4375 0 2.328125 0.875q0.90625 0.875 1.015625 2.359375l0 0.484375q0 1.625 -0.90625 2.609375q-0.890625 0.96875 -2.421875 0.96875q-1.515625 0 -2.4375 -0.96875q-0.90625 -0.984375 -0.90625 -2.65625l0 -0.078125zm1.890625 0.125q0 1.0 0.375 1.53125q0.375 0.53125 1.078125 0.53125q0.6875 0 1.0625 -0.515625q0.390625 -0.53125 0.390625 -1.671875q0 -0.984375 -0.390625 -1.53125q-0.375 -0.546875 -1.078125 -0.546875q-0.6875 0 -1.0625 0.546875q-0.375 0.53125 -0.375 1.65625zm7.6767426 -3.59375l0.0625 0.8125q0.75 -0.9375 2.015625 -0.9375q1.125 0 1.671875 0.65625q0.546875 0.65625 0.5625 1.96875l0 4.546875l-1.890625 0l0 -4.5q0 -0.609375 -0.265625 -0.875q-0.25 -0.265625 -0.859375 -0.265625q-0.78125 0 -1.1875 0.671875l0 4.96875l-1.875 0l0 -7.046875l1.765625 0z" fill-rule="nonzero"/><path fill="#000000" d="m15.878896 168.71638l0.046875 0.890625q0.79687595 -1.015625 2.109376 -1.015625q2.234375 0 2.25 2.515625l0 4.65625l-1.203125 0l0 -4.65625q-0.015625 -0.765625 -0.359375 -1.125q-0.328125 -0.375 -1.0625 -0.375q-0.578125 0 -1.03125 0.3125q-0.4375 0.3125 -0.68750095 0.828125l0 5.015625l-1.203125 0l0 -7.046875l1.140625 0zm10.572648 7.046875q-0.109375 -0.203125 -0.171875 -0.734375q-0.84375 0.859375 -2.015625 0.859375q-1.03125 0 -1.703125 -0.578125q-0.671875 -0.59375 -0.671875 -1.5q0 -1.09375 0.828125 -1.703125q0.84375 -0.609375 2.359375 -0.609375l1.171875 0l0 -0.5625q0 -0.625 -0.375 -1.0q-0.375 -0.375 -1.109375 -0.375q-0.640625 0 -1.078125 0.328125q-0.4375 0.328125 -0.4375 0.78125l-1.203125 0q0 -0.515625 0.359375 -1.0q0.375 -0.5 1.015625 -0.78125q0.65625 -0.296875 1.421875 -0.296875q1.21875 0 1.90625 0.609375q0.6875 0.609375 0.71875 1.671875l0 3.25q0 0.96875 0.234375 1.53125l0 0.109375l-1.25 0zm-2.0 -0.921875q0.5625 0 1.0625 -0.28125q0.515625 -0.296875 0.734375 -0.765625l0 -1.453125l-0.9375 0q-2.21875 0 -2.21875 1.296875q0 0.5625 0.375 0.890625q0.390625 0.3125 0.984375 0.3125zm6.031021 -6.125l0.03125 0.78125q0.765625 -0.90625 2.093748 -0.90625q1.46875 0 2.0 1.125q0.359375 -0.5 0.921875 -0.8125q0.5625 -0.3125 1.328125 -0.3125q2.3125 0 2.359375 2.453125l0 4.71875l-1.203125 0l0 -4.640625q0 -0.765625 -0.34375 -1.140625q-0.34375 -0.375 -1.171875 -0.375q-0.65625 0 -1.109375 0.40625q-0.4375 0.40625 -0.515625 1.078125l0 4.671875l-1.203125 0l0 -4.609375q0 -1.546875 -1.5 -1.546875q-1.1874981 0 -1.6249981 1.015625l0 5.140625l-1.203125 0l0 -7.046875l1.140625 0zm13.462889 7.171875q-1.421875 0 -2.328125 -0.9375q-0.890625 -0.9375 -0.890625 -2.515625l0 -0.21875q0 -1.046875 0.390625 -1.859375q0.40625 -0.828125 1.125 -1.296875q0.71875 -0.46875 1.5625 -0.46875q1.375 0 2.125 0.90625q0.765625 0.90625 0.765625 2.59375l0 0.5l-4.765625 0q0.015625 1.03125 0.59375 1.671875q0.59375 0.640625 1.484375 0.640625q0.640625 0 1.078125 -0.25q0.453125 -0.265625 0.78125 -0.6875l0.734375 0.5625q-0.875 1.359375 -2.65625 1.359375zm-0.140625 -6.3125q-0.734375 0 -1.234375 0.53125q-0.484375 0.53125 -0.609375 1.484375l3.53125 0l0 -0.078125q-0.046875 -0.921875 -0.5 -1.421875q-0.4375 -0.515625 -1.1875 -0.515625zm8.42305 -3.9375l0.703125 0.46875q-0.609375 0.828125 -0.625 1.78125l0 0.890625l-1.203125 0l0 -0.75q0 -0.671875 0.3125 -1.3125q0.3125 -0.65625 0.8125 -1.078125zm2.0 0l0.703125 0.46875q-0.609375 0.828125 -0.625 1.78125l0 0.890625l-1.203125 0l0 -0.75q0 -0.671875 0.3125 -1.3125q0.3125 -0.65625 0.8125 -1.078125zm3.3210754 9.109375l4.484375 0l0 1.015625l-5.75 0l0 -9.46875l1.265625 0l0 8.453125zm10.07793 0.3125q-0.703125 0.828125 -2.0625 0.828125q-1.140625 0 -1.7343788 -0.640625q-0.578125 -0.65625 -0.578125 -1.9375l0 -4.59375l1.2031288 0l0 4.546875q0 1.609375 1.296875 1.609375q1.375 0 1.828125 -1.03125l0 -5.125l1.21875 0l0 7.046875l-1.15625 0l-0.015625 -0.703125zm4.128647 -6.34375l0.046875 0.890625q0.796875 -1.015625 2.109375 -1.015625q2.234375 0 2.25 2.515625l0 4.65625l-1.203125 0l0 -4.65625q-0.015625 -0.765625 -0.359375 -1.125q-0.328125 -0.375 -1.0625 -0.375q-0.578125 0 -1.03125 0.3125q-0.4375 0.3125 -0.6875 0.828125l0 5.015625l-1.203125 0l0 -7.046875l1.140625 0zm10.572647 7.046875q-0.109375 -0.203125 -0.171875 -0.734375q-0.84375 0.859375 -2.015625 0.859375q-1.03125 0 -1.703125 -0.578125q-0.671875 -0.59375 -0.671875 -1.5q0 -1.09375 0.828125 -1.703125q0.84375 -0.609375 2.359375 -0.609375l1.171875 0l0 -0.5625q0 -0.625 -0.375 -1.0q-0.375 -0.375 -1.109375 -0.375q-0.640625 0 -1.078125 0.328125q-0.4375 0.328125 -0.4375 0.78125l-1.203125 0q0 -0.515625 0.359375 -1.0q0.375 -0.5 1.015625 -0.78125q0.65625 -0.296875 1.421875 -0.296875q1.21875 0 1.90625 0.609375q0.6875 0.609375 0.71875 1.671875l0 3.25q0 0.96875 0.234375 1.53125l0 0.109375l-1.25 0zm-2.0 -0.921875q0.5625 0 1.0625 -0.28125q0.515625 -0.296875 0.734375 -0.765625l0 -1.453125l-0.9375 0q-2.21875 0 -2.21875 1.296875q0 0.5625 0.375 0.890625q0.390625 0.3125 0.984375 0.3125zm4.984146 -5.890625l-0.6875 -0.46875q0.609375 -0.84375 0.625 -1.78125l0 -0.9375l1.1875 0l0 0.84375q0 0.65625 -0.328125 1.3125q-0.3125 0.640625 -0.796875 1.03125zm2.0 0l-0.6875 -0.46875q0.609375 -0.84375 0.625 -1.78125l0 -0.9375l1.1875 0l0 0.84375q0 0.65625 -0.328125 1.3125q-0.3125 0.640625 -0.796875 1.03125z" fill-rule="nonzero"/><path fill="#000000" d="m18.847647 189.88826q0 -0.484375 -0.375 -0.75q-0.359375 -0.265625 -1.28125 -0.453125q-0.90625 -0.203125 -1.453126 -0.46875q-0.53125 -0.28125 -0.796875 -0.65625q-0.25 -0.390625 -0.25 -0.90625q0 -0.859375 0.734375 -1.453125q0.73437595 -0.609375 1.875001 -0.609375q1.1875 0 1.9375 0.625q0.75 0.609375 0.75 1.578125l-1.21875 0q0 -0.5 -0.421875 -0.859375q-0.421875 -0.359375 -1.046875 -0.359375q-0.65625 0 -1.03125 0.296875q-0.37500095 0.28125 -0.37500095 0.75q0 0.421875 0.34375095 0.65625q0.34375 0.21875 1.25 0.421875q0.90625 0.203125 1.453125 0.484375q0.5625 0.265625 0.828125 0.671875q0.28125 0.390625 0.28125 0.953125q0 0.9375 -0.765625 1.515625q-0.75 0.5625 -1.953125 0.5625q-0.84375 0 -1.500001 -0.296875q-0.640625 -0.296875 -1.015625 -0.828125q-0.359375 -0.546875 -0.359375 -1.171875l1.203125 0q0.03125 0.609375 0.48437595 0.96875q0.453125 0.34375 1.1875 0.34375q0.6875 0 1.09375 -0.265625q0.421875 -0.28125 0.421875 -0.75zm4.0754395 1.875l-1.203125 0l0 -7.046875l1.203125 0l0 7.046875zm-1.296875 -8.90625q0 -0.296875 0.171875 -0.5q0.1875 -0.203125 0.53125 -0.203125q0.359375 0 0.53125 0.203125q0.1875 0.203125 0.1875 0.5q0 0.296875 -0.1875 0.5q-0.171875 0.1875 -0.53125 0.1875q-0.34375 0 -0.53125 -0.1875q-0.171875 -0.203125 -0.171875 -0.5zm4.359421 7.921875l4.109375 0l0 0.984375l-5.578125 0l0 -0.890625l3.875 -5.15625l-3.828125 0l0 -1.0l5.34375 0l0 0.859375l-3.921875 5.203125zm8.386747 1.109375q-1.421875 0 -2.328125 -0.9375q-0.8906231 -0.9375 -0.8906231 -2.515625l0 -0.21875q0 -1.046875 0.390625 -1.859375q0.40625 -0.828125 1.1249981 -1.296875q0.71875 -0.46875 1.5625 -0.46875q1.375 0 2.125 0.90625q0.765625 0.90625 0.765625 2.59375l0 0.5l-4.765625 0q0.015625 1.03125 0.59375 1.671875q0.59375 0.640625 1.484375 0.640625q0.640625 0 1.078125 -0.25q0.453125 -0.265625 0.78125 -0.6875l0.734375 0.5625q-0.875 1.359375 -2.65625 1.359375zm-0.140625 -6.3125q-0.734375 0 -1.234375 0.53125q-0.484375 0.53125 -0.609375 1.484375l3.53125 0l0 -0.078125q-0.046875 -0.921875 -0.5 -1.421875q-0.4375 -0.515625 -1.1875 -0.515625zm11.42305 6.1875l-1.21875 0l0 -8.03125l-2.421875 0.90625l0 -1.09375l3.453125 -1.296875l0.1875 0l0 9.515625zm9.640305 -8.796875l-3.921875 8.796875l-1.265625 0l3.90625 -8.484375l-5.125 0l0 -0.984375l6.40625 0l0 0.671875zm3.1090546 3.46875l0.90625 0q0.859375 -0.015625 1.34375 -0.4375q0.484375 -0.4375 0.484375 -1.1875q0 -1.65625 -1.65625 -1.65625q-0.78125 0 -1.25 0.453125q-0.453125 0.4375 -0.453125 1.171875l-1.203125 0q0 -1.125 0.8125 -1.875q0.828125 -0.75 2.09375 -0.75q1.34375 0 2.09375 0.71875q0.765625 0.703125 0.765625 1.96875q0 0.609375 -0.40625 1.203125q-0.390625 0.578125 -1.078125 0.859375q0.78125 0.25 1.203125 0.828125q0.4375 0.5625 0.4375 1.390625q0 1.28125 -0.84375 2.03125q-0.828125 0.734375 -2.171875 0.734375q-1.328125 0 -2.171875 -0.71875q-0.828125 -0.71875 -0.828125 -1.90625l1.21875 0q0 0.75 0.484375 1.203125q0.484375 0.4375 1.3125 0.4375q0.859375 0 1.328125 -0.453125q0.46875 -0.453125 0.46875 -1.296875q0 -0.828125 -0.515625 -1.265625q-0.5 -0.453125 -1.46875 -0.46875l-0.90625 0l0 -0.984375zm11.859058 -3.46875l-3.921875 8.796875l-1.265625 0l3.90625 -8.484375l-5.125004 0l0 -0.984375l6.406254 0l0 0.671875z" fill-rule="nonzero"/></g><path fill="#000000" fill-opacity="0.0" d="m91.2883 107.15143l-38.897636 33.133865" fill-rule="evenodd"/><path stroke="#000000" stroke-width="1.0" stroke-linejoin="round" stroke-linecap="butt" d="m91.28831 107.15143l-34.330112 29.243149" fill-rule="evenodd"/><path fill="#000000" stroke="#000000" stroke-width="1.0" stroke-linecap="butt" d="m55.887123 135.13718l-2.3835793 4.2001343l4.5257187 -1.6853485z" fill-rule="evenodd"/><path fill="#000000" fill-opacity="0.0" d="m-2.1456077 107.04035l95.08662 0l0 37.354332l-95.08662 0z" fill-rule="evenodd"/><path fill="#000000" d="m7.7918925 128.21535q0 -0.31249237 0.1875 -0.5156174q0.18749952 -0.21875 0.5468745 -0.21875q0.375 0 0.5625 0.21875q0.203125 0.203125 0.203125 0.5156174q0 0.296875 -0.203125 0.5q-0.1875 0.203125 -0.5625 0.203125q-0.359375 0 -0.5468745 -0.203125q-0.1875 -0.203125 -0.1875 -0.5zm4.617126 -6.4218674l0.03125 0.78125q0.765625 -0.90625 2.09375 -0.90625q1.468751 0 2.000001 1.125q0.359375 -0.5 0.921875 -0.8125q0.5625 -0.3125 1.328125 -0.3125q2.3125 0 2.359375 2.453125l0 4.7187424l-1.203125 0l0 -4.6406174q0 -0.765625 -0.34375 -1.140625q-0.34375 -0.375 -1.171875 -0.375q-0.65625 0 -1.109375 0.40625q-0.4375 0.40625 -0.515625 1.078125l0 4.6718674l-1.203126 0l0 -4.6093674q0 -1.546875 -1.5 -1.546875q-1.1875 0 -1.625 1.015625l0 5.1406174l-1.203125 0l0 -7.0468674l1.140625 0zm10.228517 3.46875q0 -1.046875 0.40625 -1.875q0.40625 -0.828125 1.125 -1.265625q0.734375 -0.453125 1.65625 -0.453125q1.4375 0 2.328125 1.0q0.890625 0.984375 0.890625 2.640625l0 0.09375q0 1.015625 -0.390625 1.84375q-0.390625 0.8124924 -1.125 1.2656174q-0.734375 0.453125 -1.6875 0.453125q-1.421875 0 -2.3125 -0.9843674q-0.890625 -1.0 -0.890625 -2.640625l0 -0.078125zm1.203125 0.140625q0 1.171875 0.546875 1.875q0.546875 0.703125 1.453125 0.703125q0.921875 0 1.453125 -0.71875q0.546875 -0.71875 0.546875 -2.0q0 -1.171875 -0.546875 -1.890625q-0.546875 -0.71875 -1.46875 -0.71875q-0.890625 0 -1.4375 0.71875q-0.546875 0.703125 -0.546875 2.03125zm6.3980713 -0.140625q0 -1.046875 0.40625 -1.875q0.40625 -0.828125 1.125 -1.265625q0.734375 -0.453125 1.65625 -0.453125q1.4375 0 2.328125 1.0q0.890625 0.984375 0.890625 2.640625l0 0.09375q0 1.015625 -0.390625 1.84375q-0.390625 0.8124924 -1.125 1.2656174q-0.734375 0.453125 -1.6875 0.453125q-1.421875 0 -2.3125 -0.9843674q-0.890625 -1.0 -0.890625 -2.640625l0 -0.078125zm1.203125 0.140625q0 1.171875 0.546875 1.875q0.546875 0.703125 1.453125 0.703125q0.921875 0 1.453125 -0.71875q0.546875 -0.71875 0.546875 -2.0q0 -1.171875 -0.546875 -1.890625q-0.546875 -0.71875 -1.46875 -0.71875q-0.890625 0 -1.4375 0.71875q-0.546875 0.703125 -0.546875 2.03125zm7.8511963 -3.609375l0.046875 0.890625q0.796875 -1.015625 2.109375 -1.015625q2.234375 0 2.25 2.515625l0 4.6562424l-1.203125 0l0 -4.6562424q-0.015625 -0.765625 -0.359375 -1.125q-0.328125 -0.375 -1.0625 -0.375q-0.578125 0 -1.03125 0.3125q-0.4375 0.3125 -0.6875 0.828125l0 5.0156174l-1.203125 0l0 -7.0468674l1.140625 0zm10.322647 5.171875q0 -0.484375 -0.375 -0.75q-0.359375 -0.265625 -1.28125 -0.453125q-0.90625 -0.203125 -1.453125 -0.46875q-0.53125 -0.28125 -0.796875 -0.65625q-0.25 -0.390625 -0.25 -0.90625q0 -0.859375 0.734375 -1.453125q0.734375 -0.609375 1.875 -0.609375q1.1875 0 1.9375 0.625q0.75 0.609375 0.75 1.578125l-1.21875 0q0 -0.5 -0.421875 -0.859375q-0.421875 -0.359375 -1.046875 -0.359375q-0.65625 0 -1.03125 0.296875q-0.375 0.28125 -0.375 0.75q0 0.421875 0.34375 0.65625q0.34375 0.21875 1.25 0.421875q0.90625 0.203125 1.453125 0.484375q0.5625 0.265625 0.828125 0.671875q0.28125 0.390625 0.28125 0.953125q0 0.9375 -0.765625 1.5156174q-0.75 0.5625 -1.953125 0.5625q-0.84375 0 -1.5 -0.296875q-0.640625 -0.296875 -1.015625 -0.8281174q-0.359375 -0.546875 -0.359375 -1.171875l1.203125 0q0.03125 0.609375 0.484375 0.96875q0.453125 0.34375 1.1875 0.34375q0.6875 0 1.09375 -0.265625q0.421875 -0.28125 0.421875 -0.75zm2.7941895 1.2499924q0 -0.31249237 0.1875 -0.5156174q0.1875 -0.21875 0.546875 -0.21875q0.375 0 0.5625 0.21875q0.203125 0.203125 0.203125 0.5156174q0 0.296875 -0.203125 0.5q-0.1875 0.203125 -0.5625 0.203125q-0.359375 0 -0.546875 -0.203125q-0.1875 -0.203125 -0.1875 -0.5zm9.304626 -3.4218674q0 2.125 -0.734375 3.15625q-0.71875 1.0156174 -2.25 1.0156174q-1.515625 0 -2.25 -0.9999924q-0.71875 -1.0 -0.75 -3.0l0 -1.609375q0 -2.09375 0.71875 -3.109375q0.71875 -1.015625 2.265625 -1.015625q1.53125 0 2.25 0.984375q0.71875 0.984375 0.75 3.015625l0 1.5625zm-1.203125 -1.640625q0 -1.53125 -0.4375 -2.21875q-0.421875 -0.703125 -1.359375 -0.703125q-0.921875 0 -1.34375 0.703125q-0.421875 0.6875 -0.4375 2.125l0 1.921875q0 1.546875 0.4375 2.28125q0.453125 0.71875 1.359375 0.71875q0.890625 0 1.3125 -0.6875q0.4375 -0.6875 0.46875 -2.171875l0 -1.96875z" fill-rule="nonzero"/><g filter="url(#shadowFilter-p.4)"><use xlink:href="#p.4" transform="matrix(1.0 0.0 0.0 1.0 0.0 2.0)"/></g><defs><filter id="shadowFilter-p.4" filterUnits="userSpaceOnUse"><feGaussianBlur in="SourceAlpha" stdDeviation="2.0" result="blur"/><feComponentTransfer in="blur" color-interpolation-filters="sRGB"><feFuncR type="linear" slope="0" intercept="0.0"/><feFuncG type="linear" slope="0" intercept="0.0"/><feFuncB type="linear" slope="0" intercept="0.0"/><feFuncA type="linear" slope="0.5" intercept="0"/></feComponentTransfer></filter></defs><g id="p.4"><path fill="#f0fff0" d="m155.81323 60.28529l107.811035 0l0 46.86614l-107.811035 0z" fill-rule="evenodd"/><path fill="#000000" d="m167.6101 77.17461l0 3.34375l-1.953125 0l0 -9.46875l3.703125 0q1.0625 0 1.875 0.390625q0.8125 0.390625 1.25 1.109375q0.4375 0.71875 0.4375 1.625q0 1.390625 -0.953125 2.203125q-0.953125 0.796875 -2.640625 0.796875l-1.71875 0zm0 -1.578125l1.75 0q0.765625 0 1.171875 -0.359375q0.40625 -0.375 0.40625 -1.046875q0 -0.6875 -0.40625 -1.109375q-0.40625 -0.4375 -1.125 -0.453125l-1.796875 0l0 2.96875zm8.503159 4.921875l-1.890625 0l0 -10.0l1.890625 0l0 10.0zm5.627533 0q-0.125 -0.25 -0.1875 -0.625q-0.671875 0.75 -1.765625 0.75q-1.046875 0 -1.734375 -0.59375q-0.671875 -0.59375 -0.671875 -1.515625q0 -1.109375 0.828125 -1.703125q0.84375 -0.609375 2.40625 -0.609375l0.859375 0l0 -0.40625q0 -0.484375 -0.25 -0.78125q-0.25 -0.296875 -0.78125 -0.296875q-0.484375 0 -0.75 0.234375q-0.265625 0.21875 -0.265625 0.625l-1.890625 0q0 -0.609375 0.375 -1.125q0.390625 -0.53125 1.078125 -0.828125q0.6875 -0.296875 1.546875 -0.296875q1.296875 0 2.0625 0.65625q0.765625 0.65625 0.765625 1.84375l0 3.046875q0.015625 1.0 0.28125 1.515625l0 0.109375l-1.90625 0zm-1.546875 -1.3125q0.40625 0 0.75 -0.171875q0.359375 -0.1875 0.53125 -0.5l0 -1.21875l-0.703125 0q-1.40625 0 -1.5 0.984375l0 0.109375q0 0.34375 0.234375 0.578125q0.25 0.21875 0.6875 0.21875zm6.34877 -5.734375l0.0625 0.8125q0.75 -0.9375 2.015625 -0.9375q1.125 0 1.671875 0.65625q0.546875 0.65625 0.5625 1.96875l0 4.546875l-1.890625 0l0 -4.5q0 -0.609375 -0.265625 -0.875q-0.25 -0.265625 -0.859375 -0.265625q-0.78125 0 -1.1875 0.671875l0 4.96875l-1.875 0l0 -7.046875l1.765625 0zm8.980164 7.171875q-1.546875 0 -2.53125 -0.9375q-0.96875 -0.953125 -0.96875 -2.53125l0 -0.1875q0 -1.0625 0.40625 -1.890625q0.40625 -0.84375 1.15625 -1.296875q0.765625 -0.453125 1.71875 -0.453125q1.453125 0 2.28125 0.921875q0.828125 0.90625 0.828125 2.578125l0 0.765625l-4.484375 0q0.09375 0.6875 0.546875 1.109375q0.46875 0.40625 1.171875 0.40625q1.078125 0 1.6875 -0.78125l0.921875 1.03125q-0.421875 0.59375 -1.140625 0.9375q-0.71875 0.328125 -1.59375 0.328125zm-0.21875 -5.78125q-0.5625 0 -0.90625 0.390625q-0.34375 0.375 -0.453125 1.078125l2.625 0l0 -0.15625q-0.015625 -0.625 -0.34375 -0.96875q-0.328125 -0.34375 -0.921875 -0.34375zm6.4229736 -3.109375l0 1.71875l1.203125 0l0 1.390625l-1.203125 0l0 3.515625q0 0.390625 0.15625 0.5625q0.15625 0.15625 0.578125 0.15625q0.3125 0 0.546875 -0.046875l0 1.4375q-0.546875 0.15625 -1.140625 0.15625q-1.984375 0 -2.015625 -2.0l0 -3.78125l-1.03125 0l0 -1.390625l1.03125 0l0 -1.71875l1.875 0z" fill-rule="nonzero"/><path fill="#000000" d="m166.8601 89.47148l0.046875 0.890625q0.796875 -1.015625 2.109375 -1.015625q2.234375 0 2.25 2.515625l0 4.65625l-1.203125 0l0 -4.65625q-0.015625 -0.765625 -0.359375 -1.125q-0.328125 -0.375 -1.0625 -0.375q-0.578125 0 -1.03125 0.3125q-0.4375 0.3125 -0.6875 0.828125l0 5.015625l-1.203125 0l0 -7.046875l1.140625 0zm10.572647 7.046875q-0.109375 -0.203125 -0.171875 -0.734375q-0.84375 0.859375 -2.015625 0.859375q-1.03125 0 -1.703125 -0.578125q-0.671875 -0.59375 -0.671875 -1.5q0 -1.09375 0.828125 -1.703125q0.84375 -0.609375 2.359375 -0.609375l1.171875 0l0 -0.5625q0 -0.625 -0.375 -1.0q-0.375 -0.375 -1.109375 -0.375q-0.640625 0 -1.078125 0.328125q-0.4375 0.328125 -0.4375 0.78125l-1.203125 0q0 -0.515625 0.359375 -1.0q0.375 -0.5 1.015625 -0.78125q0.65625 -0.296875 1.421875 -0.296875q1.21875 0 1.90625 0.609375q0.6875 0.609375 0.71875 1.671875l0 3.25q0 0.96875 0.234375 1.53125l0 0.109375l-1.25 0zm-2.0 -0.921875q0.5625 0 1.0625 -0.28125q0.515625 -0.296875 0.734375 -0.765625l0 -1.453125l-0.9375 0q-2.21875 0 -2.21875 1.296875q0 0.5625 0.375 0.890625q0.390625 0.3125 0.984375 0.3125zm6.031021 -6.125l0.03125 0.78125q0.765625 -0.90625 2.09375 -0.90625q1.46875 0 2.0 1.125q0.359375 -0.5 0.921875 -0.8125q0.5625 -0.3125 1.328125 -0.3125q2.3125 0 2.359375 2.453125l0 4.71875l-1.203125 0l0 -4.640625q0 -0.765625 -0.34375 -1.140625q-0.34375 -0.375 -1.171875 -0.375q-0.65625 0 -1.109375 0.40625q-0.4375 0.40625 -0.515625 1.078125l0 4.671875l-1.203125 0l0 -4.609375q0 -1.546875 -1.5 -1.546875q-1.1875 0 -1.625 1.015625l0 5.140625l-1.203125 0l0 -7.046875l1.140625 0zm13.462891 7.171875q-1.421875 0 -2.328125 -0.9375q-0.890625 -0.9375 -0.890625 -2.515625l0 -0.21875q0 -1.046875 0.390625 -1.859375q0.40625 -0.828125 1.125 -1.296875q0.71875 -0.46875 1.5625 -0.46875q1.375 0 2.125 0.90625q0.765625 0.90625 0.765625 2.59375l0 0.5l-4.765625 0q0.015625 1.03125 0.59375 1.671875q0.59375 0.640625 1.484375 0.640625q0.640625 0 1.078125 -0.25q0.453125 -0.265625 0.78125 -0.6875l0.734375 0.5625q-0.875 1.359375 -2.65625 1.359375zm-0.140625 -6.3125q-0.734375 0 -1.234375 0.53125q-0.484375 0.53125 -0.609375 1.484375l3.53125 0l0 -0.078125q-0.046875 -0.921875 -0.5 -1.421875q-0.4375 -0.515625 -1.1875 -0.515625zm9.795425 0.890625l-5.4375 0l0 -1.046875l5.4375 0l0 1.046875zm0 2.703125l-5.4375 0l0 -1.046875l5.4375 0l0 1.046875zm2.6429749 -7.53125l0.703125 0.46875q-0.609375 0.828125 -0.625 1.78125l0 0.890625l-1.203125 0l0 -0.75q0 -0.671875 0.3125 -1.3125q0.3125 -0.65625 0.8125 -1.078125zm2.0 0l0.703125 0.46875q-0.609375 0.828125 -0.625 1.78125l0 0.890625l-1.203125 0l0 -0.75q0 -0.671875 0.3125 -1.3125q0.3125 -0.65625 0.8125 -1.078125zm4.8523254 5.90625q-1.609375 -0.46875 -2.34375 -1.140625q-0.734375 -0.671875 -0.734375 -1.65625q0 -1.125 0.890625 -1.859375q0.90625 -0.734375 2.34375 -0.734375q0.96875 0 1.734375 0.390625q0.765625 0.375 1.1875 1.046875q0.421875 0.65625 0.421875 1.4375l-1.265625 0q0 -0.859375 -0.546875 -1.34375q-0.546875 -0.5 -1.53125 -0.5q-0.921875 0 -1.453125 0.40625q-0.515625 0.40625 -0.515625 1.125q0 0.578125 0.484375 0.984375q0.5 0.40625 1.671875 0.734375q1.1875 0.328125 1.859375 0.734375q0.671875 0.390625 0.984375 0.9375q0.328125 0.53125 0.328125 1.25q0 1.15625 -0.90625 1.84375q-0.890625 0.6875 -2.390625 0.6875q-0.984375 0 -1.828125 -0.375q-0.84375 -0.375 -1.3125 -1.015625q-0.453125 -0.65625 -0.453125 -1.484375l1.265625 0q0 0.859375 0.625 1.359375q0.640625 0.5 1.703125 0.5q0.984375 0 1.515625 -0.40625q0.53125 -0.40625 0.53125 -1.09375q0 -0.703125 -0.5 -1.078125q-0.484375 -0.390625 -1.765625 -0.75zm9.282074 4.21875q-0.109375 -0.203125 -0.171875 -0.734375q-0.84375 0.859375 -2.015625 0.859375q-1.03125 0 -1.703125 -0.578125q-0.671875 -0.59375 -0.671875 -1.5q0 -1.09375 0.828125 -1.703125q0.84375 -0.609375 2.359375 -0.609375l1.171875 0l0 -0.5625q0 -0.625 -0.375 -1.0q-0.375 -0.375 -1.109375 -0.375q-0.640625 0 -1.078125 0.328125q-0.4375 0.328125 -0.4375 0.78125l-1.203125 0q0 -0.515625 0.359375 -1.0q0.375 -0.5 1.015625 -0.78125q0.65625 -0.296875 1.421875 -0.296875q1.21875 0 1.90625 0.609375q0.6875 0.609375 0.71875 1.671875l0 3.25q0 0.96875 0.234375 1.53125l0 0.109375l-1.25 0zm-2.0 -0.921875q0.5625 0 1.0625 -0.28125q0.515625 -0.296875 0.734375 -0.765625l0 -1.453125l-0.9375 0q-2.21875 0 -2.21875 1.296875q0 0.5625 0.375 0.890625q0.390625 0.3125 0.984375 0.3125zm6.531021 -7.828125l0 1.703125l1.3125 0l0 0.9375l-1.3125 0l0 4.359375q0 0.421875 0.171875 0.640625q0.171875 0.21875 0.59375 0.21875q0.21875 0 0.578125 -0.078125l0 0.96875q-0.46875 0.125 -0.921875 0.125q-0.8125 0 -1.21875 -0.484375q-0.40625 -0.484375 -0.40625 -1.390625l0 -4.359375l-1.28125 0l0 -0.9375l1.28125 0l0 -1.703125l1.203125 0zm7.072525 8.046875q-0.703125 0.828125 -2.0625 0.828125q-1.140625 0 -1.734375 -0.640625q-0.578125 -0.65625 -0.578125 -1.9375l0 -4.59375l1.203125 0l0 4.546875q0 1.609375 1.296875 1.609375q1.375 0 1.828125 -1.03125l0 -5.125l1.21875 0l0 7.046875l-1.15625 0l-0.015625 -0.703125zm6.394272 -5.265625q-0.265625 -0.03125 -0.59375 -0.03125q-1.1875 0 -1.609375 1.0l0 5.0l-1.203125 0l0 -7.046875l1.171875 0l0.03125 0.8125q0.578125 -0.9375 1.671875 -0.9375q0.34375 0 0.53125 0.09375l0 1.109375zm2.244339 -1.078125l0.046875 0.890625q0.796875 -1.015625 2.109375 -1.015625q2.234375 0 2.25 2.515625l0 4.65625l-1.203125 0l0 -4.65625q-0.015625 -0.765625 -0.359375 -1.125q-0.328125 -0.375 -1.0625 -0.375q-0.578125 0 -1.03125 0.3125q-0.4375 0.3125 -0.6875 0.828125l0 5.015625l-1.203125 0l0 -7.046875l1.140625 0zm6.307022 0.234375l-0.6875 -0.46875q0.609375 -0.84375 0.625 -1.78125l0 -0.9375l1.1875 0l0 0.84375q0 0.65625 -0.328125 1.3125q-0.3125 0.640625 -0.796875 1.03125zm2.0 0l-0.6875 -0.46875q0.609375 -0.84375 0.625 -1.78125l0 -0.9375l1.1875 0l0 0.84375q0 0.65625 -0.328125 1.3125q-0.3125 0.640625 -0.796875 1.03125z" fill-rule="nonzero"/></g><g filter="url(#shadowFilter-p.5)"><use xlink:href="#p.5" transform="matrix(1.0 0.0 0.0 1.0 0.0 2.0)"/></g><defs><filter id="shadowFilter-p.5" filterUnits="userSpaceOnUse"><feGaussianBlur in="SourceAlpha" stdDeviation="2.0" result="blur"/><feComponentTransfer in="blur" color-interpolation-filters="sRGB"><feFuncR type="linear" slope="0" intercept="0.0"/><feFuncG type="linear" slope="0" intercept="0.0"/><feFuncB type="linear" slope="0" intercept="0.0"/><feFuncA type="linear" slope="0.5" intercept="0"/></feComponentTransfer></filter></defs><g id="p.5"><path fill="#f0f0ff" d="m108.80577 140.28609l95.086624 0l0 61.35434l-95.086624 0z" fill-rule="evenodd"/><path fill="#000000" d="m121.196396 150.29451l2.4375 6.859375l2.421875 -6.859375l2.5625 0l0 9.46875l-1.953125 0l0 -2.59375l0.1875 -4.46875l-2.546875 7.0625l-1.34375 0l-2.546875 -7.046875l0.1875 4.453125l0 2.59375l-1.953125 0l0 -9.46875l2.546875 0zm8.706375 5.890625q0 -1.0625 0.40625 -1.875q0.40625 -0.828125 1.15625 -1.265625q0.765625 -0.453125 1.765625 -0.453125q1.4375 0 2.328125 0.875q0.90625 0.875 1.015625 2.359375l0 0.484375q0 1.625 -0.90625 2.609375q-0.890625 0.96875 -2.421875 0.96875q-1.515625 0 -2.4375 -0.96875q-0.90625 -0.984375 -0.90625 -2.65625l0 -0.078125zm1.890625 0.125q0 1.0 0.375 1.53125q0.375 0.53125 1.078125 0.53125q0.6875 0 1.0625 -0.515625q0.390625 -0.53125 0.390625 -1.671875q0 -0.984375 -0.390625 -1.53125q-0.375 -0.546875 -1.078125 -0.546875q-0.6875 0 -1.0625 0.546875q-0.375 0.53125 -0.375 1.65625zm5.6454926 -0.125q0 -1.0625 0.40625 -1.875q0.40625 -0.828125 1.15625 -1.265625q0.765625 -0.453125 1.765625 -0.453125q1.4375 0 2.328125 0.875q0.90625 0.875 1.015625 2.359375l0 0.484375q0 1.625 -0.90625 2.609375q-0.890625 0.96875 -2.421875 0.96875q-1.515625 0 -2.4375 -0.96875q-0.90625 -0.984375 -0.90625 -2.65625l0 -0.078125zm1.890625 0.125q0 1.0 0.375 1.53125q0.375 0.53125 1.078125 0.53125q0.6875 0 1.0625 -0.515625q0.390625 -0.53125 0.390625 -1.671875q0 -0.984375 -0.390625 -1.53125q-0.375 -0.546875 -1.078125 -0.546875q-0.6875 0 -1.0625 0.546875q-0.375 0.53125 -0.375 1.65625zm7.6767426 -3.59375l0.0625 0.8125q0.75 -0.9375 2.015625 -0.9375q1.125 0 1.671875 0.65625q0.546875 0.65625 0.5625 1.96875l0 4.546875l-1.890625 0l0 -4.5q0 -0.609375 -0.265625 -0.875q-0.25 -0.265625 -0.859375 -0.265625q-0.78125 0 -1.1875 0.671875l0 4.96875l-1.875 0l0 -7.046875l1.765625 0z" fill-rule="nonzero"/><path fill="#000000" d="m119.852646 168.71638l0.046875 0.890625q0.796875 -1.015625 2.109375 -1.015625q2.234375 0 2.25 2.515625l0 4.65625l-1.203125 0l0 -4.65625q-0.015625 -0.765625 -0.359375 -1.125q-0.328125 -0.375 -1.0625 -0.375q-0.578125 0 -1.03125 0.3125q-0.4375 0.3125 -0.6875 0.828125l0 5.015625l-1.203125 0l0 -7.046875l1.140625 0zm10.572647 7.046875q-0.109375 -0.203125 -0.171875 -0.734375q-0.84375 0.859375 -2.015625 0.859375q-1.03125 0 -1.703125 -0.578125q-0.671875 -0.59375 -0.671875 -1.5q0 -1.09375 0.828125 -1.703125q0.84375 -0.609375 2.359375 -0.609375l1.171875 0l0 -0.5625q0 -0.625 -0.375 -1.0q-0.375 -0.375 -1.109375 -0.375q-0.640625 0 -1.078125 0.328125q-0.4375 0.328125 -0.4375 0.78125l-1.203125 0q0 -0.515625 0.359375 -1.0q0.375 -0.5 1.015625 -0.78125q0.65625 -0.296875 1.421875 -0.296875q1.21875 0 1.90625 0.609375q0.6875 0.609375 0.71875 1.671875l0 3.25q0 0.96875 0.234375 1.53125l0 0.109375l-1.25 0zm-2.0 -0.921875q0.5625 0 1.0625 -0.28125q0.515625 -0.296875 0.734375 -0.765625l0 -1.453125l-0.9375 0q-2.21875 0 -2.21875 1.296875q0 0.5625 0.375 0.890625q0.390625 0.3125 0.984375 0.3125zm6.031021 -6.125l0.03125 0.78125q0.765625 -0.90625 2.09375 -0.90625q1.46875 0 2.0 1.125q0.359375 -0.5 0.921875 -0.8125q0.5625 -0.3125 1.328125 -0.3125q2.3125 0 2.359375 2.453125l0 4.71875l-1.203125 0l0 -4.640625q0 -0.765625 -0.34375 -1.140625q-0.34375 -0.375 -1.171875 -0.375q-0.65625 0 -1.109375 0.40625q-0.4375 0.40625 -0.515625 1.078125l0 4.671875l-1.203125 0l0 -4.609375q0 -1.546875 -1.5 -1.546875q-1.1875 0 -1.625 1.015625l0 5.140625l-1.203125 0l0 -7.046875l1.140625 0zm13.462891 7.171875q-1.421875 0 -2.328125 -0.9375q-0.890625 -0.9375 -0.890625 -2.515625l0 -0.21875q0 -1.046875 0.390625 -1.859375q0.40625 -0.828125 1.125 -1.296875q0.71875 -0.46875 1.5625 -0.46875q1.375 0 2.125 0.90625q0.765625 0.90625 0.765625 2.59375l0 0.5l-4.765625 0q0.015625 1.03125 0.59375 1.671875q0.59375 0.640625 1.484375 0.640625q0.640625 0 1.078125 -0.25q0.453125 -0.265625 0.78125 -0.6875l0.734375 0.5625q-0.875 1.359375 -2.65625 1.359375zm-0.140625 -6.3125q-0.734375 0 -1.234375 0.53125q-0.484375 0.53125 -0.609375 1.484375l3.53125 0l0 -0.078125q-0.046875 -0.921875 -0.5 -1.421875q-0.4375 -0.515625 -1.1875 -0.515625zm8.42305 -3.9375l0.703125 0.46875q-0.609375 0.828125 -0.625 1.78125l0 0.890625l-1.203125 0l0 -0.75q0 -0.671875 0.3125 -1.3125q0.3125 -0.65625 0.8125 -1.078125zm2.0 0l0.703125 0.46875q-0.609375 0.828125 -0.625 1.78125l0 0.890625l-1.203125 0l0 -0.75q0 -0.671875 0.3125 -1.3125q0.3125 -0.65625 0.8125 -1.078125zm8.602325 1.671875l-3.046875 0l0 8.453125l-1.234375 0l0 -8.453125l-3.046875 0l0 -1.015625l7.328125 0l0 1.015625zm2.5307465 8.453125l-1.203125 0l0 -7.046875l1.203125 0l0 7.046875zm-1.296875 -8.90625q0 -0.296875 0.171875 -0.5q0.1875 -0.203125 0.53125 -0.203125q0.359375 0 0.53125 0.203125q0.1875 0.203125 0.1875 0.5q0 0.296875 -0.1875 0.5q-0.171875 0.1875 -0.53125 0.1875q-0.34375 0 -0.53125 -0.1875q-0.171875 -0.203125 -0.171875 -0.5zm4.859421 0.15625l0 1.703125l1.3125 0l0 0.9375l-1.3125 0l0 4.359375q0 0.421875 0.171875 0.640625q0.171875 0.21875 0.59375 0.21875q0.21875 0 0.578125 -0.078125l0 0.96875q-0.46875 0.125 -0.921875 0.125q-0.8125 0 -1.21875 -0.484375q-0.40625 -0.484375 -0.40625 -1.390625l0 -4.359375l-1.28125 0l0 -0.9375l1.28125 0l0 -1.703125l1.203125 0zm7.072525 8.75q-0.109375 -0.203125 -0.171875 -0.734375q-0.84375 0.859375 -2.015625 0.859375q-1.03125 0 -1.703125 -0.578125q-0.671875 -0.59375 -0.671875 -1.5q0 -1.09375 0.828125 -1.703125q0.84375 -0.609375 2.359375 -0.609375l1.171875 0l0 -0.5625q0 -0.625 -0.375 -1.0q-0.375 -0.375 -1.109375 -0.375q-0.640625 0 -1.078125 0.328125q-0.4375 0.328125 -0.4375 0.78125l-1.203125 0q0 -0.515625 0.359375 -1.0q0.375 -0.5 1.015625 -0.78125q0.65625 -0.296875 1.421875 -0.296875q1.21875 0 1.90625 0.609375q0.6875 0.609375 0.71875 1.671875l0 3.25q0 0.96875 0.234375 1.53125l0 0.109375l-1.25 0zm-2.0 -0.921875q0.5625 0 1.0625 -0.28125q0.515625 -0.296875 0.734375 -0.765625l0 -1.453125l-0.9375 0q-2.21875 0 -2.21875 1.296875q0 0.5625 0.375 0.890625q0.390625 0.3125 0.984375 0.3125zm6.031021 -6.125l0.046875 0.890625q0.796875 -1.015625 2.109375 -1.015625q2.234375 0 2.25 2.515625l0 4.65625l-1.203125 0l0 -4.65625q-0.015625 -0.765625 -0.359375 -1.125q-0.328125 -0.375 -1.0625 -0.375q-0.578125 0 -1.03125 0.3125q-0.4375 0.3125 -0.6875 0.828125l0 5.015625l-1.203125 0l0 -7.046875l1.140625 0zm6.307022 0.234375l-0.6875 -0.46875q0.609375 -0.84375 0.625 -1.78125l0 -0.9375l1.1875 0l0 0.84375q0 0.65625 -0.328125 1.3125q-0.3125 0.640625 -0.796875 1.03125zm2.0 0l-0.6875 -0.46875q0.609375 -0.84375 0.625 -1.78125l0 -0.9375l1.1875 0l0 0.84375q0 0.65625 -0.328125 1.3125q-0.3125 0.640625 -0.796875 1.03125z" fill-rule="nonzero"/><path fill="#000000" d="m122.821396 189.88826q0 -0.484375 -0.375 -0.75q-0.359375 -0.265625 -1.28125 -0.453125q-0.90625 -0.203125 -1.453125 -0.46875q-0.53125 -0.28125 -0.796875 -0.65625q-0.25 -0.390625 -0.25 -0.90625q0 -0.859375 0.734375 -1.453125q0.734375 -0.609375 1.875 -0.609375q1.1875 0 1.9375 0.625q0.75 0.609375 0.75 1.578125l-1.21875 0q0 -0.5 -0.421875 -0.859375q-0.421875 -0.359375 -1.046875 -0.359375q-0.65625 0 -1.03125 0.296875q-0.375 0.28125 -0.375 0.75q0 0.421875 0.34375 0.65625q0.34375 0.21875 1.25 0.421875q0.90625 0.203125 1.453125 0.484375q0.5625 0.265625 0.828125 0.671875q0.28125 0.390625 0.28125 0.953125q0 0.9375 -0.765625 1.515625q-0.75 0.5625 -1.953125 0.5625q-0.84375 0 -1.5 -0.296875q-0.640625 -0.296875 -1.015625 -0.828125q-0.359375 -0.546875 -0.359375 -1.171875l1.203125 0q0.03125 0.609375 0.484375 0.96875q0.453125 0.34375 1.1875 0.34375q0.6875 0 1.09375 -0.265625q0.421875 -0.28125 0.421875 -0.75zm4.0754395 1.875l-1.203125 0l0 -7.046875l1.203125 0l0 7.046875zm-1.296875 -8.90625q0 -0.296875 0.171875 -0.5q0.1875 -0.203125 0.53125 -0.203125q0.359375 0 0.53125 0.203125q0.1875 0.203125 0.1875 0.5q0 0.296875 -0.1875 0.5q-0.171875 0.1875 -0.53125 0.1875q-0.34375 0 -0.53125 -0.1875q-0.171875 -0.203125 -0.171875 -0.5zm4.359421 7.921875l4.109375 0l0 0.984375l-5.578125 0l0 -0.890625l3.875 -5.15625l-3.828125 0l0 -1.0l5.34375 0l0 0.859375l-3.921875 5.203125zm8.386749 1.109375q-1.421875 0 -2.328125 -0.9375q-0.890625 -0.9375 -0.890625 -2.515625l0 -0.21875q0 -1.046875 0.390625 -1.859375q0.40625 -0.828125 1.125 -1.296875q0.71875 -0.46875 1.5625 -0.46875q1.375 0 2.125 0.90625q0.765625 0.90625 0.765625 2.59375l0 0.5l-4.765625 0q0.015625 1.03125 0.59375 1.671875q0.59375 0.640625 1.484375 0.640625q0.640625 0 1.078125 -0.25q0.453125 -0.265625 0.78125 -0.6875l0.734375 0.5625q-0.875 1.359375 -2.65625 1.359375zm-0.140625 -6.3125q-0.734375 0 -1.234375 0.53125q-0.484375 0.53125 -0.609375 1.484375l3.53125 0l0 -0.078125q-0.046875 -0.921875 -0.5 -1.421875q-0.4375 -0.515625 -1.1875 -0.515625zm13.67305 6.1875l-6.21875 0l0 -0.859375l3.28125 -3.65625q0.734375 -0.828125 1.0 -1.34375q0.28125 -0.515625 0.28125 -1.0625q0 -0.75 -0.453125 -1.21875q-0.4375 -0.46875 -1.1875 -0.46875q-0.890625 0 -1.390625 0.515625q-0.5 0.5 -0.5 1.40625l-1.203125 0q0 -1.296875 0.84375 -2.109375q0.84375 -0.8125 2.25 -0.8125q1.328125 0 2.09375 0.703125q0.765625 0.6875 0.765625 1.84375q0 1.390625 -1.78125 3.328125l-2.546875 2.75l4.765625 0l0 0.984375zm1.8278046 -4.75l0.484375 -4.71875l4.84375 0l0 1.109375l-3.828125 0l-0.28125 2.578125q0.6875 -0.40625 1.578125 -0.40625q1.296875 0 2.046875 0.859375q0.765625 0.84375 0.765625 2.3125q0 1.453125 -0.796875 2.296875q-0.78125 0.84375 -2.203125 0.84375q-1.25 0 -2.046875 -0.6875q-0.796875 -0.703125 -0.90625 -1.9375l1.140625 0q0.109375 0.828125 0.578125 1.234375q0.46875 0.40625 1.234375 0.40625q0.84375 0 1.3125 -0.5625q0.484375 -0.578125 0.484375 -1.578125q0 -0.953125 -0.515625 -1.53125q-0.515625 -0.578125 -1.375 -0.578125q-0.78125 0 -1.234375 0.34375l-0.328125 0.265625l-0.953125 -0.25zm13.046555 -4.046875l-3.921875 8.796875l-1.265625 0l3.90625 -8.484375l-5.125 0l0 -0.984375l6.40625 0l0 0.671875zm6.0934296 -0.6875l0 1.03125l-0.21875 0q-1.40625 0.015625 -2.25 0.828125q-0.828125 0.8125 -0.953125 2.265625q0.75 -0.859375 2.03125 -0.859375q1.25 0 1.984375 0.875q0.734375 0.875 0.734375 2.25q0 1.46875 -0.796875 2.34375q-0.796875 0.875 -2.140625 0.875q-1.359375 0 -2.203125 -1.03125q-0.84375 -1.046875 -0.84375 -2.703125l0 -0.453125q0 -2.625 1.109375 -4.0q1.125 -1.390625 3.328125 -1.421875l0.21875 0zm-1.578125 4.265625q-0.625 0 -1.15625 0.375q-0.515625 0.375 -0.71875 0.9375l0 0.4375q0 1.171875 0.53125 1.890625q0.53125 0.71875 1.3125 0.71875q0.8125 0 1.28125 -0.59375q0.46875 -0.609375 0.46875 -1.578125q0 -0.984375 -0.46875 -1.578125q-0.46875 -0.609375 -1.25 -0.609375z" fill-rule="nonzero"/></g><path fill="#000000" fill-opacity="0.0" d="m209.71875 107.15143l-53.35434 33.133865" fill-rule="evenodd"/><path stroke="#000000" stroke-width="1.0" stroke-linejoin="round" stroke-linecap="butt" d="m209.71875 107.15143l-48.257233 29.96849" fill-rule="evenodd"/><path fill="#000000" stroke="#000000" stroke-width="1.0" stroke-linecap="butt" d="m160.59012 135.71674l-2.9837952 3.7973022l4.7265778 -0.99095154z" fill-rule="evenodd"/><g filter="url(#shadowFilter-p.6)"><use xlink:href="#p.6" transform="matrix(1.0 0.0 0.0 1.0 0.0 2.0)"/></g><defs><filter id="shadowFilter-p.6" filterUnits="userSpaceOnUse"><feGaussianBlur in="SourceAlpha" stdDeviation="2.0" result="blur"/><feComponentTransfer in="blur" color-interpolation-filters="sRGB"><feFuncR type="linear" slope="0" intercept="0.0"/><feFuncG type="linear" slope="0" intercept="0.0"/><feFuncB type="linear" slope="0" intercept="0.0"/><feFuncA type="linear" slope="0.5" intercept="0"/></feComponentTransfer></filter></defs><g id="p.6"><path fill="#f0f0ff" d="m210.47769 141.14961l107.811035 0l0 61.354324l-107.811035 0z" fill-rule="evenodd"/><path fill="#000000" d="m222.86832 151.15802l2.4375 6.859375l2.421875 -6.859375l2.5625 0l0 9.46875l-1.953125 0l0 -2.59375l0.1875 -4.46875l-2.546875 7.0625l-1.34375 0l-2.546875 -7.046875l0.1875 4.453125l0 2.59375l-1.953125 0l0 -9.46875l2.546875 0zm8.706375 5.890625q0 -1.0625 0.40625 -1.875q0.40625 -0.828125 1.15625 -1.265625q0.765625 -0.453125 1.765625 -0.453125q1.4375 0 2.328125 0.875q0.90625 0.875 1.015625 2.359375l0 0.484375q0 1.625 -0.90625 2.609375q-0.890625 0.96875 -2.421875 0.96875q-1.515625 0 -2.4375 -0.96875q-0.90625 -0.984375 -0.90625 -2.65625l0 -0.078125zm1.890625 0.125q0 1.0 0.375 1.53125q0.375 0.53125 1.078125 0.53125q0.6875 0 1.0625 -0.515625q0.390625 -0.53125 0.390625 -1.671875q0 -0.984375 -0.390625 -1.53125q-0.375 -0.546875 -1.078125 -0.546875q-0.6875 0 -1.0625 0.546875q-0.375 0.53125 -0.375 1.65625zm5.6454926 -0.125q0 -1.0625 0.40625 -1.875q0.40625 -0.828125 1.15625 -1.265625q0.765625 -0.453125 1.765625 -0.453125q1.4375 0 2.328125 0.875q0.90625 0.875 1.015625 2.359375l0 0.484375q0 1.625 -0.90625 2.609375q-0.890625 0.96875 -2.421875 0.96875q-1.515625 0 -2.4375 -0.96875q-0.90625 -0.984375 -0.90625 -2.65625l0 -0.078125zm1.890625 0.125q0 1.0 0.375 1.53125q0.375 0.53125 1.078125 0.53125q0.6875 0 1.0625 -0.515625q0.390625 -0.53125 0.390625 -1.671875q0 -0.984375 -0.390625 -1.53125q-0.375 -0.546875 -1.078125 -0.546875q-0.6875 0 -1.0625 0.546875q-0.375 0.53125 -0.375 1.65625zm7.6767426 -3.59375l0.0625 0.8125q0.75 -0.9375 2.015625 -0.9375q1.125 0 1.671875 0.65625q0.546875 0.65625 0.5625 1.96875l0 4.546875l-1.890625 0l0 -4.5q0 -0.609375 -0.265625 -0.875q-0.25 -0.265625 -0.859375 -0.265625q-0.78125 0 -1.1875 0.671875l0 4.96875l-1.875 0l0 -7.046875l1.765625 0z" fill-rule="nonzero"/><path fill="#000000" d="m221.52457 169.5799l0.046875 0.890625q0.796875 -1.015625 2.109375 -1.015625q2.234375 0 2.25 2.515625l0 4.65625l-1.203125 0l0 -4.65625q-0.015625 -0.765625 -0.359375 -1.125q-0.328125 -0.375 -1.0625 -0.375q-0.578125 0 -1.03125 0.3125q-0.4375 0.3125 -0.6875 0.828125l0 5.015625l-1.203125 0l0 -7.046875l1.140625 0zm10.572647 7.046875q-0.109375 -0.203125 -0.171875 -0.734375q-0.84375 0.859375 -2.015625 0.859375q-1.03125 0 -1.703125 -0.578125q-0.671875 -0.59375 -0.671875 -1.5q0 -1.09375 0.828125 -1.703125q0.84375 -0.609375 2.359375 -0.609375l1.171875 0l0 -0.5625q0 -0.625 -0.375 -1.0q-0.375 -0.375 -1.109375 -0.375q-0.640625 0 -1.078125 0.328125q-0.4375 0.328125 -0.4375 0.78125l-1.203125 0q0 -0.515625 0.359375 -1.0q0.375 -0.5 1.015625 -0.78125q0.65625 -0.296875 1.421875 -0.296875q1.21875 0 1.90625 0.609375q0.6875 0.609375 0.71875 1.671875l0 3.25q0 0.96875 0.234375 1.53125l0 0.109375l-1.25 0zm-2.0 -0.921875q0.5625 0 1.0625 -0.28125q0.515625 -0.296875 0.734375 -0.765625l0 -1.453125l-0.9375 0q-2.21875 0 -2.21875 1.296875q0 0.5625 0.375 0.890625q0.390625 0.3125 0.984375 0.3125zm6.031021 -6.125l0.03125 0.78125q0.765625 -0.90625 2.09375 -0.90625q1.46875 0 2.0 1.125q0.359375 -0.5 0.921875 -0.8125q0.5625 -0.3125 1.328125 -0.3125q2.3125 0 2.359375 2.453125l0 4.71875l-1.203125 0l0 -4.640625q0 -0.765625 -0.34375 -1.140625q-0.34375 -0.375 -1.171875 -0.375q-0.65625 0 -1.109375 0.40625q-0.4375 0.40625 -0.515625 1.078125l0 4.671875l-1.203125 0l0 -4.609375q0 -1.546875 -1.5 -1.546875q-1.1875 0 -1.625 1.015625l0 5.140625l-1.203125 0l0 -7.046875l1.140625 0zm13.462891 7.171875q-1.421875 0 -2.328125 -0.9375q-0.890625 -0.9375 -0.890625 -2.515625l0 -0.21875q0 -1.046875 0.390625 -1.859375q0.40625 -0.828125 1.125 -1.296875q0.71875 -0.46875 1.5625 -0.46875q1.375 0 2.125 0.90625q0.765625 0.90625 0.765625 2.59375l0 0.5l-4.765625 0q0.015625 1.03125 0.59375 1.671875q0.59375 0.640625 1.484375 0.640625q0.640625 0 1.078125 -0.25q0.453125 -0.265625 0.78125 -0.6875l0.734375 0.5625q-0.875 1.359375 -2.65625 1.359375zm-0.140625 -6.3125q-0.734375 0 -1.234375 0.53125q-0.484375 0.53125 -0.609375 1.484375l3.53125 0l0 -0.078125q-0.046875 -0.921875 -0.5 -1.421875q-0.4375 -0.515625 -1.1875 -0.515625zm8.423035 -3.9375l0.703125 0.46875q-0.609375 0.828125 -0.625 1.78125l0 0.890625l-1.203125 0l0 -0.75q0 -0.671875 0.3125 -1.3125q0.3125 -0.65625 0.8125 -1.078125zm2.0 0l0.703125 0.46875q-0.609375 0.828125 -0.625 1.78125l0 0.890625l-1.203125 0l0 -0.75q0 -0.671875 0.3125 -1.3125q0.3125 -0.65625 0.8125 -1.078125zm3.6804504 0.65625l3.09375 7.71875l3.09375 -7.71875l1.625 0l0 9.46875l-1.25 0l0 -3.6875l0.109375 -3.984375l-3.109375 7.671875l-0.953125 0l-3.109375 -7.65625l0.125 3.96875l0 3.6875l-1.25 0l0 -9.46875l1.625 0zm11.136078 9.46875l-1.203125 0l0 -7.046875l1.203125 0l0 7.046875zm-1.296875 -8.90625q0 -0.296875 0.171875 -0.5q0.1875 -0.203125 0.53125 -0.203125q0.359375 0 0.53125 0.203125q0.1875 0.203125 0.1875 0.5q0 0.296875 -0.1875 0.5q-0.171875 0.1875 -0.53125 0.1875q-0.34375 0 -0.53125 -0.1875q-0.171875 -0.203125 -0.171875 -0.5zm4.359436 1.859375l0.03125 0.78125q0.765625 -0.90625 2.09375 -0.90625q1.46875 0 2.0 1.125q0.359375 -0.5 0.921875 -0.8125q0.5625 -0.3125 1.328125 -0.3125q2.3125 0 2.359375 2.453125l0 4.71875l-1.203125 0l0 -4.640625q0 -0.765625 -0.34375 -1.140625q-0.34375 -0.375 -1.171875 -0.375q-0.65625 0 -1.109375 0.40625q-0.4375 0.40625 -0.515625 1.078125l0 4.671875l-1.203125 0l0 -4.609375q0 -1.546875 -1.5 -1.546875q-1.1875 0 -1.625 1.015625l0 5.140625l-1.203125 0l0 -7.046875l1.140625 0zm14.900391 7.046875q-0.109375 -0.203125 -0.171875 -0.734375q-0.84375 0.859375 -2.015625 0.859375q-1.03125 0 -1.703125 -0.578125q-0.671875 -0.59375 -0.671875 -1.5q0 -1.09375 0.828125 -1.703125q0.84375 -0.609375 2.359375 -0.609375l1.171875 0l0 -0.5625q0 -0.625 -0.375 -1.0q-0.375 -0.375 -1.109375 -0.375q-0.640625 0 -1.078125 0.328125q-0.4375 0.328125 -0.4375 0.78125l-1.203125 0q0 -0.515625 0.359375 -1.0q0.375 -0.5 1.015625 -0.78125q0.65625 -0.296875 1.421875 -0.296875q1.21875 0 1.90625 0.609375q0.6875 0.609375 0.71875 1.671875l0 3.25q0 0.96875 0.234375 1.53125l0 0.109375l-1.25 0zm-2.0 -0.921875q0.5625 0 1.0625 -0.28125q0.515625 -0.296875 0.734375 -0.765625l0 -1.453125l-0.9375 0q-2.21875 0 -2.21875 1.296875q0 0.5625 0.375 0.890625q0.390625 0.3125 0.984375 0.3125zm8.999756 -0.953125q0 -0.484375 -0.375 -0.75q-0.359375 -0.265625 -1.28125 -0.453125q-0.90625 -0.203125 -1.453125 -0.46875q-0.53125 -0.28125 -0.796875 -0.65625q-0.25 -0.390625 -0.25 -0.90625q0 -0.859375 0.734375 -1.453125q0.734375 -0.609375 1.875 -0.609375q1.1875 0 1.9375 0.625q0.75 0.609375 0.75 1.578125l-1.21875 0q0 -0.5 -0.421875 -0.859375q-0.421875 -0.359375 -1.046875 -0.359375q-0.65625 0 -1.03125 0.296875q-0.375 0.28125 -0.375 0.75q0 0.421875 0.34375 0.65625q0.34375 0.21875 1.25 0.421875q0.90625 0.203125 1.453125 0.484375q0.5625 0.265625 0.828125 0.671875q0.28125 0.390625 0.28125 0.953125q0 0.9375 -0.765625 1.515625q-0.75 0.5625 -1.953125 0.5625q-0.84375 0 -1.5 -0.296875q-0.640625 -0.296875 -1.015625 -0.828125q-0.359375 -0.546875 -0.359375 -1.171875l1.203125 0q0.03125 0.609375 0.484375 0.96875q0.453125 0.34375 1.1875 0.34375q0.6875 0 1.09375 -0.265625q0.421875 -0.28125 0.421875 -0.75zm2.8566895 -4.9375l-0.6875 -0.46875q0.609375 -0.84375 0.625 -1.78125l0 -0.9375l1.1875 0l0 0.84375q0 0.65625 -0.328125 1.3125q-0.3125 0.640625 -0.796875 1.03125zm2.0 0l-0.6875 -0.46875q0.609375 -0.84375 0.625 -1.78125l0 -0.9375l1.1875 0l0 0.84375q0 0.65625 -0.328125 1.3125q-0.3125 0.640625 -0.796875 1.03125z" fill-rule="nonzero"/><path fill="#000000" d="m224.49332 190.75177q0 -0.484375 -0.375 -0.75q-0.359375 -0.265625 -1.28125 -0.453125q-0.90625 -0.203125 -1.453125 -0.46875q-0.53125 -0.28125 -0.796875 -0.65625q-0.25 -0.390625 -0.25 -0.90625q0 -0.859375 0.734375 -1.453125q0.734375 -0.609375 1.875 -0.609375q1.1875 0 1.9375 0.625q0.75 0.609375 0.75 1.578125l-1.21875 0q0 -0.5 -0.421875 -0.859375q-0.421875 -0.359375 -1.046875 -0.359375q-0.65625 0 -1.03125 0.296875q-0.375 0.28125 -0.375 0.75q0 0.421875 0.34375 0.65625q0.34375 0.21875 1.25 0.421875q0.90625 0.203125 1.453125 0.484375q0.5625 0.265625 0.828125 0.671875q0.28125 0.390625 0.28125 0.953125q0 0.9375 -0.765625 1.515625q-0.75 0.5625 -1.953125 0.5625q-0.84375 0 -1.5 -0.296875q-0.640625 -0.296875 -1.015625 -0.828125q-0.359375 -0.546875 -0.359375 -1.171875l1.203125 0q0.03125 0.609375 0.484375 0.96875q0.453125 0.34375 1.1875 0.34375q0.6875 0 1.09375 -0.265625q0.421875 -0.28125 0.421875 -0.75zm4.0754395 1.875l-1.203125 0l0 -7.046875l1.203125 0l0 7.046875zm-1.296875 -8.90625q0 -0.296875 0.171875 -0.5q0.1875 -0.203125 0.53125 -0.203125q0.359375 0 0.53125 0.203125q0.1875 0.203125 0.1875 0.5q0 0.296875 -0.1875 0.5q-0.171875 0.1875 -0.53125 0.1875q-0.34375 0 -0.53125 -0.1875q-0.171875 -0.203125 -0.171875 -0.5zm4.359421 7.921875l4.109375 0l0 0.984375l-5.578125 0l0 -0.890625l3.875 -5.15625l-3.828125 0l0 -1.0l5.34375 0l0 0.859375l-3.921875 5.203125zm8.386749 1.109375q-1.421875 0 -2.328125 -0.9375q-0.890625 -0.9375 -0.890625 -2.515625l0 -0.21875q0 -1.046875 0.390625 -1.859375q0.40625 -0.828125 1.125 -1.296875q0.71875 -0.46875 1.5625 -0.46875q1.375 0 2.125 0.90625q0.765625 0.90625 0.765625 2.59375l0 0.5l-4.765625 0q0.015625 1.03125 0.59375 1.671875q0.59375 0.640625 1.484375 0.640625q0.640625 0 1.078125 -0.25q0.453125 -0.265625 0.78125 -0.6875l0.734375 0.5625q-0.875 1.359375 -2.65625 1.359375zm-0.140625 -6.3125q-0.734375 0 -1.234375 0.53125q-0.484375 0.53125 -0.609375 1.484375l3.53125 0l0 -0.078125q-0.046875 -0.921875 -0.5 -1.421875q-0.4375 -0.515625 -1.1875 -0.515625zm13.67305 6.1875l-6.21875 0l0 -0.859375l3.28125 -3.65625q0.734375 -0.828125 1.0 -1.34375q0.28125 -0.515625 0.28125 -1.0625q0 -0.75 -0.453125 -1.21875q-0.4375 -0.46875 -1.1875 -0.46875q-0.890625 0 -1.390625 0.515625q-0.5 0.5 -0.5 1.40625l-1.203125 0q0 -1.296875 0.84375 -2.109375q0.84375 -0.8125 2.25 -0.8125q1.328125 0 2.09375 0.703125q0.765625 0.6875 0.765625 1.84375q0 1.390625 -1.78125 3.328125l-2.546875 2.75l4.765625 0l0 0.984375zm1.8278046 -4.75l0.484375 -4.71875l4.8437347 0l0 1.109375l-3.828125 0l-0.28125 2.578125q0.6875 -0.40625 1.578125 -0.40625q1.296875 0 2.046875 0.859375q0.765625 0.84375 0.765625 2.3125q0 1.453125 -0.796875 2.296875q-0.78125 0.84375 -2.203125 0.84375q-1.25 0 -2.0468597 -0.6875q-0.796875 -0.703125 -0.90625 -1.9375l1.1406097 0q0.109375 0.828125 0.578125 1.234375q0.46875 0.40625 1.234375 0.40625q0.84375 0 1.3125 -0.5625q0.484375 -0.578125 0.484375 -1.578125q0 -0.953125 -0.515625 -1.53125q-0.515625 -0.578125 -1.375 -0.578125q-0.78125 0 -1.234375 0.34375l-0.328125 0.265625l-0.95310974 -0.25zm13.140305 4.75l-6.21875 0l0 -0.859375l3.28125 -3.65625q0.734375 -0.828125 1.0 -1.34375q0.28125 -0.515625 0.28125 -1.0625q0 -0.75 -0.453125 -1.21875q-0.4375 -0.46875 -1.1875 -0.46875q-0.890625 0 -1.390625 0.515625q-0.5 0.5 -0.5 1.40625l-1.203125 0q0 -1.296875 0.84375 -2.109375q0.84375 -0.8125 2.25 -0.8125q1.328125 0 2.09375 0.703125q0.765625 0.6875 0.765625 1.84375q0 1.390625 -1.78125 3.328125l-2.546875 2.75l4.765625 0l0 0.984375z" fill-rule="nonzero"/></g><path fill="#000000" fill-opacity="0.0" d="m209.71875 107.15143l54.677155 33.984253" fill-rule="evenodd"/><path stroke="#000000" stroke-width="1.0" stroke-linejoin="round" stroke-linecap="butt" d="m209.71875 107.15143l49.58127 30.816925" fill-rule="evenodd"/><path fill="#000000" stroke="#000000" stroke-width="1.0" stroke-linecap="butt" d="m258.4281 139.3712l4.7261963 0.99276733l-2.9823303 -3.7984467z" fill-rule="evenodd"/><path fill="#000000" fill-opacity="0.0" d="m238.7319 105.04045l95.08661 0l0 37.354324l-95.08661 0z" fill-rule="evenodd"/><path fill="#000000" d="m248.6694 126.21545q0 -0.3125 0.1875 -0.515625q0.1875 -0.21875 0.546875 -0.21875q0.375 0 0.5625 0.21875q0.203125 0.203125 0.203125 0.515625q0 0.296875 -0.203125 0.5q-0.1875 0.203125 -0.5625 0.203125q-0.359375 0 -0.546875 -0.203125q-0.1875 -0.203125 -0.1875 -0.5zm4.6171265 -6.421875l0.03125 0.78125q0.765625 -0.90625 2.09375 -0.90625q1.46875 0 2.0 1.125q0.359375 -0.5 0.921875 -0.8125q0.5625 -0.3125 1.328125 -0.3125q2.3125 0 2.359375 2.453125l0 4.71875l-1.203125 0l0 -4.640625q0 -0.765625 -0.34375 -1.140625q-0.34375 -0.375 -1.171875 -0.375q-0.65625 0 -1.109375 0.40625q-0.4375 0.40625 -0.515625 1.078125l0 4.671875l-1.203125 0l0 -4.609375q0 -1.546875 -1.5 -1.546875q-1.1875 0 -1.625 1.015625l0 5.140625l-1.203125 0l0 -7.046875l1.140625 0zm10.228516 3.46875q0 -1.046875 0.40625 -1.875q0.40625 -0.828125 1.125 -1.265625q0.734375 -0.453125 1.65625 -0.453125q1.4375 0 2.328125 1.0q0.890625 0.984375 0.890625 2.640625l0 0.09375q0 1.015625 -0.390625 1.84375q-0.390625 0.8125 -1.125 1.265625q-0.734375 0.453125 -1.6875 0.453125q-1.421875 0 -2.3125 -0.984375q-0.890625 -1.0 -0.890625 -2.640625l0 -0.078125zm1.203125 0.140625q0 1.171875 0.546875 1.875q0.546875 0.703125 1.453125 0.703125q0.921875 0 1.453125 -0.71875q0.546875 -0.71875 0.546875 -2.0q0 -1.171875 -0.546875 -1.890625q-0.546875 -0.71875 -1.46875 -0.71875q-0.890625 0 -1.4375 0.71875q-0.546875 0.703125 -0.546875 2.03125zm6.3980713 -0.140625q0 -1.046875 0.40625 -1.875q0.40625 -0.828125 1.125 -1.265625q0.734375 -0.453125 1.65625 -0.453125q1.4375 0 2.328125 1.0q0.890625 0.984375 0.890625 2.640625l0 0.09375q0 1.015625 -0.390625 1.84375q-0.390625 0.8125 -1.125 1.265625q-0.734375 0.453125 -1.6875 0.453125q-1.421875 0 -2.3125 -0.984375q-0.890625 -1.0 -0.890625 -2.640625l0 -0.078125zm1.203125 0.140625q0 1.171875 0.546875 1.875q0.546875 0.703125 1.453125 0.703125q0.921875 0 1.453125 -0.71875q0.546875 -0.71875 0.546875 -2.0q0 -1.171875 -0.546875 -1.890625q-0.546875 -0.71875 -1.46875 -0.71875q-0.890625 0 -1.4375 0.71875q-0.546875 0.703125 -0.546875 2.03125zm7.8511963 -3.609375l0.046875 0.890625q0.796875 -1.015625 2.109375 -1.015625q2.234375 0 2.25 2.515625l0 4.65625l-1.203125 0l0 -4.65625q-0.015625 -0.765625 -0.359375 -1.125q-0.328125 -0.375 -1.0625 -0.375q-0.578125 0 -1.03125 0.3125q-0.4375 0.3125 -0.6875 0.828125l0 5.015625l-1.203125 0l0 -7.046875l1.140625 0zm10.322632 5.171875q0 -0.484375 -0.375 -0.75q-0.359375 -0.265625 -1.28125 -0.453125q-0.90625 -0.203125 -1.453125 -0.46875q-0.53125 -0.28125 -0.796875 -0.65625q-0.25 -0.390625 -0.25 -0.90625q0 -0.859375 0.734375 -1.453125q0.734375 -0.609375 1.875 -0.609375q1.1875 0 1.9375 0.625q0.75 0.609375 0.75 1.578125l-1.21875 0q0 -0.5 -0.421875 -0.859375q-0.421875 -0.359375 -1.046875 -0.359375q-0.65625 0 -1.03125 0.296875q-0.375 0.28125 -0.375 0.75q0 0.421875 0.34375 0.65625q0.34375 0.21875 1.25 0.421875q0.90625 0.203125 1.453125 0.484375q0.5625 0.265625 0.828125 0.671875q0.28125 0.390625 0.28125 0.953125q0 0.9375 -0.765625 1.515625q-0.75 0.5625 -1.953125 0.5625q-0.84375 0 -1.5 -0.296875q-0.640625 -0.296875 -1.015625 -0.828125q-0.359375 -0.546875 -0.359375 -1.171875l1.203125 0q0.03125 0.609375 0.484375 0.96875q0.453125 0.34375 1.1875 0.34375q0.6875 0 1.09375 -0.265625q0.421875 -0.28125 0.421875 -0.75zm2.7941895 1.25q0 -0.3125 0.1875 -0.515625q0.1875 -0.21875 0.546875 -0.21875q0.375 0 0.5625 0.21875q0.203125 0.203125 0.203125 0.515625q0 0.296875 -0.203125 0.5q-0.1875 0.203125 -0.5625 0.203125q-0.359375 0 -0.546875 -0.203125q-0.1875 -0.203125 -0.1875 -0.5zm7.3202515 0.625l-1.21875 0l0 -8.03125l-2.421875 0.90625l0 -1.09375l3.453125 -1.296875l0.1875 0l0 9.515625z" fill-rule="nonzero"/><path fill="#000000" fill-opacity="0.0" d="m148.83202 28.905512l60.881897 31.370077" fill-rule="evenodd"/><path stroke="#000000" stroke-width="1.0" stroke-linejoin="round" stroke-linecap="butt" d="m148.83202 28.905512l55.548294 28.621878" fill-rule="evenodd"/><path fill="#000000" stroke="#000000" stroke-width="1.0" stroke-linecap="butt" d="m203.62375 58.99567l4.790619 0.61032104l-3.2775116 -3.5468864z" fill-rule="evenodd"/><path fill="#000000" fill-opacity="0.0" d="m186.45354 25.852219l109.54332 0l0 33.85827l-109.54332 0z" fill-rule="evenodd"/><path fill="#000000" d="m196.39104 47.027218q0 -0.3125 0.1875 -0.515625q0.1875 -0.21875 0.546875 -0.21875q0.375 0 0.5625 0.21875q0.203125 0.203125 0.203125 0.515625q0 0.296875 -0.203125 0.5q-0.1875 0.203125 -0.5625 0.203125q-0.359375 0 -0.546875 -0.203125q-0.1875 -0.203125 -0.1875 -0.5zm9.429626 -2.8125q0 1.609375 -0.734375 2.59375q-0.734375 0.96875 -2.0 0.96875q-1.28125 0 -2.015625 -0.8125l0 3.390625l-1.203125 0l0 -9.75l1.109375 0l0.046875 0.78125q0.75 -0.90625 2.046875 -0.90625q1.265625 0 2.0 0.953125q0.75 0.953125 0.75 2.671875l0 0.109375zm-1.203125 -0.140625q0 -1.1875 -0.515625 -1.875q-0.5 -0.703125 -1.390625 -0.703125q-1.09375 0 -1.640625 0.96875l0 3.375q0.546875 0.953125 1.65625 0.953125q0.875 0 1.375 -0.671875q0.515625 -0.6875 0.515625 -2.046875zm4.0400543 3.578125l-1.203125 0l0 -10.0l1.203125 0l0 10.0zm6.281296 0q-0.109375 -0.203125 -0.171875 -0.734375q-0.84375 0.859375 -2.015625 0.859375q-1.03125 0 -1.703125 -0.578125q-0.671875 -0.59375 -0.671875 -1.5q0 -1.09375 0.828125 -1.703125q0.84375 -0.609375 2.359375 -0.609375l1.171875 0l0 -0.5625q0 -0.625 -0.375 -1.0q-0.375 -0.375 -1.109375 -0.375q-0.640625 0 -1.078125 0.328125q-0.4375 0.328125 -0.4375 0.78125l-1.203125 0q0 -0.515625 0.359375 -1.0q0.375 -0.5 1.015625 -0.78125q0.65625 -0.296875 1.421875 -0.296875q1.21875 0 1.90625 0.609375q0.6875 0.609375 0.71875 1.671875l0 3.25q0 0.96875 0.234375 1.53125l0 0.109375l-1.25 0zm-2.0 -0.921875q0.5625 0 1.0625 -0.28125q0.515625 -0.296875 0.734375 -0.765625l0 -1.453125l-0.9375 0q-2.21875 0 -2.21875 1.296875q0 0.5625 0.375 0.890625q0.390625 0.3125 0.984375 0.3125zm6.031021 -6.125l0.046875 0.890625q0.796875 -1.015625 2.109375 -1.015625q2.234375 0 2.25 2.515625l0 4.65625l-1.203125 0l0 -4.65625q-0.015625 -0.765625 -0.359375 -1.125q-0.328125 -0.375 -1.0625 -0.375q-0.578125 0 -1.03125 0.3125q-0.4375 0.3125 -0.6875 0.828125l0 5.015625l-1.203125 0l0 -7.046875l1.140625 0zm9.135147 7.171875q-1.421875 0 -2.328125 -0.9375q-0.890625 -0.9375 -0.890625 -2.515625l0 -0.21875q0 -1.046875 0.390625 -1.859375q0.40625 -0.828125 1.125 -1.296875q0.71875 -0.46875 1.5625 -0.46875q1.375 0 2.125 0.90625q0.765625 0.90625 0.765625 2.59375l0 0.5l-4.765625 0q0.015625 1.03125 0.59375 1.671875q0.59375 0.640625 1.484375 0.640625q0.640625 0 1.078125 -0.25q0.453125 -0.265625 0.78125 -0.6875l0.734375 0.5625q-0.875 1.359375 -2.65625 1.359375zm-0.140625 -6.3125q-0.734375 0 -1.234375 0.53125q-0.484375 0.53125 -0.609375 1.484375l3.53125 0l0 -0.078125q-0.046875 -0.921875 -0.5 -1.421875q-0.4375 -0.515625 -1.1875 -0.515625zm5.9204254 -2.5625l0 1.703125l1.3125 0l0 0.9375l-1.3125 0l0 4.359375q0 0.421875 0.171875 0.640625q0.171875 0.21875 0.59375 0.21875q0.21875 0 0.578125 -0.078125l0 0.96875q-0.46875 0.125 -0.921875 0.125q-0.8125 0 -1.21875 -0.484375q-0.40625 -0.484375 -0.40625 -1.390625l0 -4.359375l-1.28125 0l0 -0.9375l1.28125 0l0 -1.703125l1.203125 0zm6.822525 6.875q0 -0.484375 -0.375 -0.75q-0.359375 -0.265625 -1.28125 -0.453125q-0.90625 -0.203125 -1.453125 -0.46875q-0.53125 -0.28125 -0.796875 -0.65625q-0.25 -0.390625 -0.25 -0.90625q0 -0.859375 0.734375 -1.453125q0.734375 -0.609375 1.875 -0.609375q1.1875 0 1.9375 0.625q0.75 0.609375 0.75 1.578125l-1.21875 0q0 -0.5 -0.421875 -0.859375q-0.421875 -0.359375 -1.046875 -0.359375q-0.65625 0 -1.03125 0.296875q-0.375 0.28125 -0.375 0.75q0 0.421875 0.34375 0.65625q0.34375 0.21875 1.25 0.421875q0.90625 0.203125 1.453125 0.484375q0.5625 0.265625 0.828125 0.671875q0.28125 0.390625 0.28125 0.953125q0 0.9375 -0.765625 1.515625q-0.75 0.5625 -1.953125 0.5625q-0.84375 0 -1.5 -0.296875q-0.640625 -0.296875 -1.015625 -0.828125q-0.359375 -0.546875 -0.359375 -1.171875l1.203125 0q0.03125 0.609375 0.484375 0.96875q0.453125 0.34375 1.1875 0.34375q0.6875 0 1.09375 -0.265625q0.421875 -0.28125 0.421875 -0.75zm2.7941895 1.25q0 -0.3125 0.1875 -0.515625q0.1875 -0.21875 0.546875 -0.21875q0.375 0 0.5625 0.21875q0.203125 0.203125 0.203125 0.515625q0 0.296875 -0.203125 0.5q-0.1875 0.203125 -0.5625 0.203125q-0.359375 0 -0.546875 -0.203125q-0.1875 -0.203125 -0.1875 -0.5zm7.3202515 0.625l-1.21875 0l0 -8.03125l-2.421875 0.90625l0 -1.09375l3.453125 -1.296875l0.1875 0l0 9.515625z" fill-rule="nonzero"/></g></svg>